<svg xmlns="http://www.w3.org/2000/svg" xmlns:xlink="http://www.w3.org/1999/xlink" width="100%" height="100%" version="1.1" viewBox="0 0 146 63" xml:space="preserve" style="fill-rule:evenodd;clip-rule:evenodd;stroke-linejoin:round;stroke-miterlimit:2"><rect id="Artboard2" width="146" height="63" x="0" y="0" style="fill:none"/><g><path d="M120,1.397c0,-0.771 -0.626,-1.397 -1.397,-1.397l-117.206,0c-0.771,0 -1.397,0.626 -1.397,1.397l0,42.206c0,0.771 0.626,1.397 1.397,1.397l117.206,0c0.771,0 1.397,-0.626 1.397,-1.397l0,-42.206Z" style="fill:#298bf5"/><path d="M35.01,32.882l-0.182,2.368l-19.817,0c0.218,-0.996 0.328,-2.331 0.328,-4.007l0,-17.522c0,-1.725 -0.11,-3.048 -0.328,-3.971l19.817,0l0.182,2.331l-1.967,-0.109l-3.06,-0.146l-10.528,0l0,9.618l9.544,0l5.282,-0.255l0,2.622l-5.282,-0.255l-9.544,0l0,9.654l10.528,0c0.267,0 0.704,-0.012 1.311,-0.036c0.607,-0.025 1.081,-0.037 1.421,-0.037c0.996,0 1.761,-0.085 2.295,-0.255Z" style="fill:#fff;fill-rule:nonzero"/><path d="M57.159,35.25l-5.283,0l-0.546,-0.984c-0.389,-0.704 -0.656,-1.129 -0.801,-1.275l-4.627,-5.318l-6.011,6.448l-0.655,1.129l-3.825,0c0.194,-0.146 0.388,-0.291 0.583,-0.437c0.34,-0.267 0.619,-0.51 0.837,-0.729l1.02,-0.947l6.74,-6.994l-8.561,-9.581l4.881,0l0.474,0.765l0.656,0.765l4.808,5.683l5.902,-6.084c0.17,-0.17 0.413,-0.546 0.728,-1.129l3.388,0l-1.384,1.202l-7.322,7.541l6.775,7.796l0.984,0.983l1.239,1.166Z" style="fill:#fff;fill-rule:nonzero"/><path d="M80.109,35.25l-3.352,0l-0.218,-1.384c-0.146,0.34 -0.292,0.607 -0.438,0.801c-0.34,0.389 -0.91,0.583 -1.712,0.583l-10.783,0c-1.821,0 -3.09,-0.328 -3.806,-0.984c-0.717,-0.655 -1.075,-1.955 -1.075,-3.897l0,-9.873c0,-1.578 -0.121,-2.89 -0.364,-3.934l3.752,0l0,14.79c0,0.826 0.097,1.378 0.291,1.658c0.195,0.279 0.668,0.419 1.421,0.419l10.856,0c0.607,0 1.044,-0.134 1.311,-0.401c0.267,-0.267 0.401,-0.826 0.401,-1.676l0,-10.856c0,-1.724 -0.122,-3.035 -0.364,-3.934l3.752,0l0,14.681c0,1.651 0.109,2.987 0.328,4.007Z" style="fill:#fff;fill-rule:nonzero"/><path d="M104.989,35.25l-4.08,0c0.097,-0.389 0.182,-0.941 0.255,-1.658c0.073,-0.716 0.11,-1.499 0.11,-2.349l0,-10.819l0,-0.474c0,-0.559 -0.092,-0.959 -0.274,-1.202c-0.182,-0.243 -0.661,-0.364 -1.439,-0.364l-10.855,0c-0.656,0 -1.105,0.115 -1.348,0.346c-0.243,0.23 -0.364,0.795 -0.364,1.694l0,10.819c0,1.724 0.121,3.06 0.364,4.007l-4.117,0c0.098,-0.461 0.183,-1.05 0.255,-1.767c0.073,-0.716 0.11,-1.463 0.11,-2.24l0,-10.747c0,-1.578 -0.122,-2.89 -0.365,-3.934l3.898,0l0,1.312l0.765,-0.948c0.292,-0.242 0.753,-0.364 1.385,-0.364l10.455,0c1.845,0 3.126,0.328 3.843,0.984c0.716,0.655 1.074,1.93 1.074,3.825l0,9.872c0,1.651 0.11,2.987 0.328,4.007Z" style="fill:#fff;fill-rule:nonzero"/></g><path d="M146,40.724c0,-0.4 -0.324,-0.724 -0.724,-0.724l-81.552,0c-0.4,0 -0.724,0.324 -0.724,0.724l0,21.552c0,0.4 0.324,0.724 0.724,0.724l81.552,0c0.4,0 0.724,-0.324 0.724,-0.724l0,-21.552Z" style="fill:#2b3e53"/><g><g><path d="M0.687,-0.513c0,0.044 -0.003,0.072 -0.01,0.085c-0.009,0.017 -0.031,0.031 -0.068,0.043l-0.399,0.108c-0.017,0.005 -0.027,0.01 -0.031,0.013c-0.005,0.003 -0.008,0.011 -0.01,0.026l0,0.182l0.377,0l0.079,-0.003c0.012,0 0.024,-0.001 0.035,-0.002c0.011,-0.001 0.019,-0.003 0.025,-0.004l-0.01,0.065l-0.618,0l0,-0.287c0,-0.024 0.006,-0.041 0.018,-0.052c0.012,-0.011 0.039,-0.022 0.08,-0.034l0.398,-0.105c0.014,-0.002 0.021,-0.018 0.021,-0.049l0,-0.059c0,-0.023 -0.002,-0.038 -0.005,-0.043c-0.006,-0.009 -0.02,-0.014 -0.043,-0.014l-0.329,0l-0.139,0.007l0.009,-0.064l0.485,0c0.05,0 0.085,0.009 0.105,0.027c0.02,0.017 0.03,0.053 0.03,0.106l0,0.054Z" transform="matrix(0.299444,0,0,0.299444,56.2521,41.1204) matrix(53.4323,0,0,53.4323,91.0482,53.3643)" style="fill:#fff;fill-rule:nonzero"/></g><g><path d="M0.691,-0.134c0,0.051 -0.009,0.086 -0.028,0.105c-0.018,0.019 -0.054,0.029 -0.107,0.029l-0.375,0c-0.05,0 -0.085,-0.009 -0.105,-0.027c-0.02,-0.019 -0.03,-0.054 -0.03,-0.107l0,-0.433c0,-0.049 0.009,-0.084 0.028,-0.104c0.019,-0.019 0.055,-0.029 0.107,-0.029l0.375,0c0.051,0 0.086,0.009 0.105,0.026c0.02,0.018 0.03,0.054 0.03,0.107l0,0.433Zm-0.113,0.02l0,-0.472c0,-0.024 -0.002,-0.039 -0.005,-0.044c-0.005,-0.009 -0.019,-0.013 -0.042,-0.013l-0.324,0c-0.02,0 -0.033,0.003 -0.039,0.009c-0.005,0.007 -0.008,0.023 -0.008,0.048l0,0.472c0,0.024 0.001,0.039 0.004,0.044c0.005,0.009 0.02,0.014 0.043,0.014l0.324,0c0.018,0 0.03,-0.004 0.037,-0.012c0.007,-0.007 0.01,-0.023 0.01,-0.046Z" transform="matrix(0.299444,0,0,0.299444,56.2521,41.1204) matrix(53.4323,0,0,53.4323,130.855,53.3643)" style="fill:#fff;fill-rule:nonzero"/></g><g><path d="M0.451,0l-0.149,0l0.011,-0.065c0.002,-0.016 0.004,-0.031 0.005,-0.046c0.001,-0.015 0.002,-0.029 0.002,-0.042l0,-0.433l-0.073,0l0,-0.051l0.131,-0.063l0.055,0l0,0.547l-0.001,0.037l0.003,0.047c0.002,0.018 0.007,0.041 0.016,0.069Z" transform="matrix(0.299444,0,0,0.299444,56.2521,41.1204) matrix(53.4323,0,0,53.4323,162.113,53.3643)" style="fill:#fff;fill-rule:nonzero"/></g><g><path d="M0.701,-0.094c0,0.037 -0.008,0.062 -0.024,0.075c-0.015,0.013 -0.043,0.019 -0.083,0.019l-0.532,0l-0.007,-0.065c0.015,0 0.026,0.001 0.032,0.002l0.105,0.007l0.347,0c0.019,0 0.032,-0.004 0.039,-0.012c0.007,-0.008 0.01,-0.023 0.01,-0.046l0,-0.192c-0.012,0.03 -0.03,0.045 -0.055,0.045l-0.345,0c-0.05,0 -0.085,-0.009 -0.105,-0.027c-0.019,-0.018 -0.029,-0.053 -0.029,-0.106l0,-0.173c0,-0.053 0.007,-0.088 0.021,-0.106c0.014,-0.018 0.045,-0.027 0.094,-0.027l0.396,0c0.05,0 0.085,0.009 0.105,0.027c0.021,0.018 0.031,0.053 0.031,0.106l0,0.473Zm-0.113,-0.281l0,-0.211l0,-0.014c0,-0.016 -0.003,-0.027 -0.008,-0.033c-0.005,-0.007 -0.019,-0.01 -0.041,-0.01l-0.326,0c-0.017,0 -0.029,0.002 -0.034,0.006c-0.005,0.005 -0.01,0.022 -0.013,0.051l0,0.211c0,0.021 0.001,0.033 0.002,0.036c0.004,0.014 0.019,0.021 0.045,0.021l0.326,0c0.02,0 0.033,-0.004 0.039,-0.011c0.007,-0.007 0.01,-0.023 0.01,-0.046Z" transform="matrix(0.299444,0,0,0.299444,56.2521,41.1204) matrix(53.4323,0,0,53.4323,190.7,53.3643)" style="fill:#fff;fill-rule:nonzero"/></g></g></svg>