<svg height="350" viewBox="0 0 320 350" width="320" xmlns="http://www.w3.org/2000/svg"><g fill="none" fill-rule="evenodd" opacity=".5"><g fill="#0954b2" transform="translate(-23.520249 -131.273504)"><path d="m134.747338 200.627505c-.473717-.567143-.940982-1.134285-1.40364-1.699577-.484776-.592123-1.355715-.677241-1.946479-.191515-.58892.486651-.674632 1.360957-.190777 1.953079.468187.572694.941904 1.146313 1.420229 1.719932.490307.587496 1.363089.665213 1.948323.173011s.662651-1.367434.172344-1.95493zm-66.5784341-59.832144c-.7428325 0-1.356637-.592123-1.3805994-1.342453-1.234982-38.124372 31.7353518-74.2956651 44.5441435-85.0167859.587077-.4894264 1.458016-.4107851 1.9474.1776368.488463.5884219.409203 1.4636532-.176031 1.95493-12.520321 10.4787206-44.7505875 45.7803331-43.5524706 82.7935501.024884.766059-.5732528 1.408142-1.3363611 1.432197-.0156677.000925-.0313354.000925-.0460814.000925zm-8.1527247 1.64129c-.7428325 0-1.356637-.592123-1.3805993-1.343378-1.2893582-39.812847 29.5667602-74.8424535 40.4779186-83.9750203.5879989-.4903516 1.4589375-.4117103 1.9474005.1767116.488463.5893471.410125 1.4636532-.176031 1.95493-10.6429643 8.9068199-40.7387392 43.0463917-39.4862462 81.7536347.0248839.766059-.5732529 1.407216-1.3363612 1.432197-.0156677.000925-.0304137.000925-.0460814.000925zm62.3426308 41.800158c-15.262166-22.545995-21.962405-43.392413-21.961483-61.856463 0-8.535818 1.429445-16.569257 4.117835-24.0540573.2599-.7216495-.11336-1.5163891-.830387-1.776368-.717948-.2590537-1.510549.1137986-1.769526.8345229-2.798064 7.7854874-4.2828073 16.1482954-4.2828073 24.9959024 0 19.149617 6.9472343 40.533572 22.4388863 63.417262.428557.633756 1.289358.79844 1.919752.367301.632237-.43114.795365-1.293418.36773-1.9281zm24.561396-131.3217019c.643297-.3395454 1.291201-.6753899 1.944636-1.0047582.682005-.3450965.955729-1.1796193.612883-1.8642611-.342846-.6846419-1.174155-.960349-1.855238-.6152525-.669102.337695-1.332675.6800159-1.988874 1.0269627-.676475.357124-.935453 1.1962728-.579704 1.8753635.354827.6781655 1.191665.9381443 1.867219.5819456zm78.543014 19.0598731c-4.953752 9.8717948-11.979326 20.8380914-18.953287 31.5906688-.416577.642083-.235937 1.501586.404594 1.919773.638689.418186 1.495803.236849 1.912379-.405234 6.979492-10.7655303 14.049303-21.7873384 19.104435-31.8552739.343767-.6846418.070044-1.5200899-.612883-1.8651864-.682005-.3441713-1.512392-.0684642-1.856159.6152525zm-39.277958 65.3277818c-.863566 1.799498-1.625753 3.536083-2.268128 5.202353-.276488.714248.077417 1.518239.788914 1.794872.711497.277557 1.513314-.077716 1.788881-.792889.610118-1.582078 1.342812-3.253899 2.181494-5.001587.330865-.690192.042395-1.519164-.646983-1.851308-.687535-.333069-1.513314-.042559-1.844178.648559z"/><path d="m124.794858 298.55867c-.925315-.950171-1.841414-1.900343-2.749218-2.848665-.529936-.552339-1.405483-.569918-1.954774-.038858-.551133.53106-.568644 1.409067-.038708 1.962332.912412.953872 1.834962 1.90867 2.764885 2.865318.533623.547714 1.408248.558816 1.954774.02313.545604-.535686.556664-1.414618.023041-1.963257zm-15.20779-16.404573c-23.2766467-26.428099-39.9479825-52.076262-50.4287405-76.448586-.3032158-.70407-1.1170136-1.028813-1.8174512-.72535-.7013592.305313-1.0248508 1.121333-.721635 1.825403 10.6263752 24.705393 27.4663691 50.583928 50.8969277 77.186889.505052.574544 1.378756.628205 1.951087.1212.572331-.50793.625786-1.385012.120733-1.959556zm-53.8590414-84.962199c-4.5721984-12.178298-7.5748637-24.013349-9.0642151-35.448718-.1004575-.759582-.7944437-1.295268-1.5511006-1.196273-.7566569.100846-1.2902797.79659-1.1907439 1.557098 1.5197652 11.665741 4.5786498 23.709886 9.2190488 36.066746.2691154.717023 1.066324 1.078773 1.7815076.808617.714262-.270156 1.0755403-1.070447.8064249-1.78747zm-10.1655611-53.699974c.0165894-1.316547.0534545-2.625693.1115171-3.930214.0341002-.765133-.5557419-1.413693-1.3188502-1.447925-.7621867-.034232-1.4091698.558816-1.4432701 1.32395-.0589842 1.334126-.096771 2.673803-.1133603 4.019032-.0092163.767909.602745 1.396114 1.3658533 1.405366s1.3898156-.60415 1.3990319-1.370209zm191.3346605-59.9181862c-9.382177 14.9649749-19.551424 30.1492202-28.099528 44.0095162-8.548103 13.872324-15.478748 26.38184-18.39478 36.210151-.218426.734602.19815 1.507137.930844 1.724557.731773.218345 1.501333-.200767 1.719759-.935369 2.745531-9.311129 9.586778-21.751255 18.095251-35.538461 8.507552-13.796458 18.6768-28.980704 28.088469-43.9928632.405516-.6485593.211944-1.5043616-.434087-1.9132963-.646062-.4080095-1.500411-.213174-1.905928.4357653z"/><path d="m114.881086 396.537761c-.687535-.662437-1.371383-1.324874-2.05431-1.987312-.549291-.533835-1.424838-.519032-1.955696.032382-.530858.550489-.51519 1.429421.034101 1.962332.683848.665212 1.371383 1.3295 2.062604 1.995638.550212.530135 1.425759.512556 1.953852-.040708.529015-.553265.511504-1.431272-.03963-1.961407z"/><path d="m99.3510943 381.1076c-24.1816856-24.787735-44.3635039-49.258129-60.5823202-73.193762-.4304005-.633756-1.2902798-.79844-1.9206736-.367301-.632237.432065-.7962869 1.295268-.3658864 1.9281 16.3266468 24.092915 36.6135308 48.68636 60.8938306 73.575865.5345444.546789 1.4100914.55604 1.9556954.019429.5446824-.535686.5538987-1.414618.0202758-1.962331zm-65.8273074-81.12728c-7.1638174-11.118953-13.4668339-22.117632-18.9108928-32.969204-.3437674-.685567-1.1750762-.960349-1.8570812-.616178-.682005.345096-.9566502 1.179619-.6128828 1.863336 5.4929051 10.948718 11.8456896 22.032514 19.0601966 33.229183.4138111.644859 1.2700039.828047 1.9105356.412636.6405317-.417262.8239358-1.27584.4101246-1.919773z"/><path d="m276.16891 47.7735395c-14.950656 26.4530796-34.488256 55.1923075-50.636107 80.9422415-.406438.648559-.212617 1.505287.433166 1.913296.646061.408935 1.500411.213809 1.906849-.435765 16.108221-25.688871 35.667018-54.4521542 50.70062-81.0495637.376025-.6670631.143774-1.5136135-.519798-1.8920169-.664494-.3784034-1.507784-.1443299-1.883809.5218081zm-55.679257 89.0774515c-7.490074 12.239361-13.970965 23.634946-18.521966 33.613138-.318883.697594-.013824 1.52009.681083 1.839281.693987.319191 1.514236.012953 1.833119-.683717 4.468055-9.80148 10.901942-21.124901 18.362524-33.316151.399987-.653185.196307-1.508062-.454363-1.90867-.650669-.401533-1.502254-.197066-1.901319.456119z"/><path d="m195.642367 188.828536c-.18709 1.009384-.330865 1.991012-.429479 2.94581-.078338.762358.474639 1.444224 1.234061 1.522865.759421.078641 1.438662-.476473 1.517-1.238831.088476-.870606.222112-1.780069.3963-2.721914.140088-.754031-.355748-1.478456-1.105954-1.61816-.750205-.14063-1.472762.357124-1.611928 1.11023"/><path d="m89.5956578 479.899841c-22.1301407-21.50978-41.970035-42.89281-59.504015-64.059344-.488463-.590272-1.3603235-.670764-1.9474007-.180412-.5861557.490351-.6663374 1.365582-.1787959 1.95493 17.6049454 21.250726 37.5130401 42.705921 59.7076948 64.278614.5483689.532911 1.4229943.519958 1.9538522-.031456.5317796-.550489.5179552-1.429421-.0304137-1.962332zm-65.0411583-70.831747c-7.519566-9.31853-14.58937732-18.592651-21.21035564-27.814962-.44606813-.621728-1.31055556-.762357-1.92988983-.314565-.61933428.447793-.75942179 1.315623-.31335365 1.937352 6.65231368 9.266719 13.75438202 18.582474 21.30528332 27.939862.4801684.595824 1.3501856.686492 1.9437143.204467.5944503-.48295.6847699-1.35633.2046015-1.952154z"/><path d="m273.119518 81.7331615c-16.509129 25.8877875-33.527919 51.5683325-46.897982 74.2817865-.388927.659662-.170501 1.510838.48662 1.900344.656199.390431 1.504097.171161 1.893025-.488501 13.313843-22.61631 30.321573-48.283902 46.84637-74.1975946.411968-.6448586.223956-1.5034364-.419341-1.9169971-.643296-.4126355-1.498567-.2248216-1.909614.4209622zm-51.307052 81.9025905c-6.565681 11.571372-11.994072 22.236056-15.682429 31.627676-.280175.712398.069122 1.519165.778776 1.799498.710576.281259 1.513314-.069389 1.793489-.781787 3.610018-9.196405 8.984034-19.76857 15.512849-31.271477.377868-.666138.146539-1.513614-.517033-1.892017-.663573-.379329-1.507784-.147106-1.884731.518107z"/><path d="m201.239601 212.452564c-.183404 1.335052-.29953 2.626619-.341925 3.871927-.025805.766059.57141 1.408142 1.334518 1.434047.763109.026831 1.40364-.573619 1.429446-1.339677.037787-1.137061.144696-2.333334.317962-3.586043.104144-.758657-.423949-1.459953-1.181528-1.564499-.755735-.105472-1.453408.425588-1.557552 1.184245z"/><path d="m70.6201574.72955327c-18.111841 28.14895583-35.8799146 55.51334923-49.5780773 79.60811523-.3778676.6652128-.1474605 1.5126884.5161119 1.8938673.6617292.3793286 1.5068624.1480307 1.8856517-.5181073 13.6345703-23.9855934 31.3832897-51.3259318 49.4997389-79.47766323.4138111-.64485858.2294855-1.50251124-.4119679-1.91977267-.6414534-.41541105-1.4967245-.23129791-1.9105356.41356067zm-54.1530406 87.81734073c-6.81912839 12.509516-12.34521219 23.994845-16.00223361 34.10719-.25989921.720724.1105954 1.517314.82762228 1.778218.71887014.26183 1.51147055-.110097 1.77136976-.831747 3.57960464-9.904176 9.04946907-21.286809 15.82896747-33.721385.3668081-.6716892.1207333-1.5154639-.5492905-1.8836902-.6691022-.3673011-1.5096273-.1212001-1.8764354.5514142z" transform="translate(211 95)"/><path d="m206.822457 236.064843c-.157599 1.481232-.238702 2.911578-.238702 4.291039 0 .160983 0 .327517.003686.503304.018433.766984.65067 1.372984 1.413778 1.355406.76403-.017579 1.36954-.653186 1.351108-1.42017-.003687-.136928-.004609-.283108-.004609-.43854 0-1.269363.074652-2.60349.223035-3.996828.081103-.761433-.467266-1.44515-1.227609-1.526567-.758501-.081416-1.439584.469998-1.520687 1.232356"/><path d="m287.118777 209.862027c-.13548 0-.271881-.019429-.40736-.061062-.72993-.224822-1.139133-1.001058-.915177-1.733809 7.217272-23.584986 26.06918-53.684246 44.760726-82.490088.416576-.643933 1.275533-.82527 1.912379-.406159.63961.418187.820249 1.278615.403673 1.919773-18.583715 28.642083-37.321342 58.550753-44.434469 81.791568-.182483.596748-.72993.979777-1.319772.979777m-1.153879 27.529078c-.541918 0-1.057108-.321967-1.277377-.854877-1.16586-2.810732-1.815608-6.046128-1.932655-9.614592-.024884-.766058.573253-1.408141 1.336361-1.433122.778776-.033306 1.401797.574544 1.426681 1.340603.106909 3.233545.686613 6.140497 1.722524 8.64129.293077.707772-.040552 1.519165-.745598 1.814301-.174187.072165-.353905.106397-.529936.106397"/><path d="m291.202051 153.408591c-.252526 0-.505974-.068464-.734538-.212794-.646061-.40801-.841446-1.264737-.43593-1.913296 6.784107-10.83862 13.739636-21.585647 20.247254-31.585118.418419-.642083 1.276455-.820645 1.913301-.402458.63961.419111.819327 1.278615.40183 1.920698-6.500245 9.989294-13.449323 20.723367-20.220527 31.543484-.262664.420037-.712419.649484-1.17139.649484m-44.998506 92.25641c-.096771 0-.194463-.010177-.292156-.031456-.746519-.160058-1.222079-.898361-1.061716-1.647767 4.354694-20.377346 16.764421-46.508458 40.239217-84.729976.399987-.65226 1.253415-.855802 1.90132-.452418.650669.401533.852506 1.25641.452519 1.90867-30.199919 49.172086-37.229179 71.408142-39.88992 83.85567-.139166.651335-.712418 1.097277-1.349264 1.097277m.84329 27.643802c-.541917 0-1.056186-.320117-1.277377-.853027-1.176919-2.837563-1.959382-6.013746-2.325268-9.442506-.081103-.763283.468187-1.447 1.226687-1.528417.76403-.083267 1.441427.469998 1.52253 1.23143.337316 3.164156 1.053422 6.081285 2.12804 8.670896.294.707772-.03963 1.521016-.743754 1.815226-.174187.072165-.354827.106398-.530858.106398"/><path d="m273.806868 142.786003c-.256212 0-.51519-.07124-.746519-.220195-.642374-.415411-.828543-1.273064-.415654-1.918848 1.684737-2.629395 3.375925-5.257864 5.070799-7.887259.416576-.643933 1.272769-.825271 1.912379-.40986.640532.416337.823015 1.274914.408282 1.918848-1.693953 2.625694-3.383298 5.252313-5.06527 7.879857-.263586.412636-.709654.637457-1.164017.637457m-29.456164 47.891621c-.236859 0-.475561-.060138-.694908-.18874-.658964-.385804-.88292-1.23513-.498601-1.896642 5.656955-9.748745 12.017112-20.248745 19.443594-32.101375.406438-.649484 1.260788-.84285 1.905927-.43484.647073.407084.841447 1.264737.434087 1.913296-7.40897 11.824875-13.75346 22.298969-19.394747 32.019033-.256213.443167-.719792.689268-1.195352.689268m-38.975665 94.697065c-.045159 0-.088476-.00185-.134557-.006476-.759422-.074015-1.316086-.751256-1.243277-1.515464 2.053388-21.335844 13.015236-49.016653 34.497472-87.11327.376946-.666138 1.223001-.898361 1.88473-.523658.663572.377478.897666 1.224028.521642 1.892017-20.992852 37.227861-32.163909 65.362939-34.151862 86.013217-.069122.717023-.670024 1.253634-1.374148 1.253634m4.413679 27.291304c-.483855 0-.953886-.255353-1.207334-.711473-1.523451-2.735791-2.707744-5.773196-3.521542-9.02802-.185247-.743854.265429-1.497885 1.004575-1.684774.745598-.185038 1.492117.26553 1.678286 1.008459.75297 3.0189 1.846943 5.828707 3.252426 8.351705.372338.667988.133636 1.513614-.532701 1.888316-.213818.11935-.445147.175787-.67371.175787"/><path d="m71.1694494 189.711261c1.2801418 5.339281 3.8477985 11.971055 7.2919238 19.297647 5.1675703 10.984801 12.3120336 23.508195 20.0638499 35.283109 7.7536599 11.774914 16.1036129 22.793947 23.7217929 30.775575.528093.552339 1.402718.571768 1.954774.041633.551134-.53106.569566-1.409066.041473-1.962331-9.925938-10.393603-21.338462-26.336505-30.8469019-42.223896-4.7556024-7.944621-9.0384095-15.879065-12.4346101-23.09926-3.3962006-7.21557-5.9011866-13.729844-7.1048332-18.761036-.1778743-.745705-.9243933-1.203675-1.6672258-1.025113-.7419108.179487-1.1981169.927967-1.0202426 1.673672"/><path d="m75.6164907 177.105525c9.0568421 37.1742 25.8949923 60.988633 46.0694383 82.108908.529014.553265 1.40364.571768 1.954774.041634.551133-.530135.570487-1.408142.041473-1.962332-19.985512-20.949114-36.4273621-44.189003-45.3800602-80.848797-.1815608-.743854-.9308447-1.199048-1.6709123-1.016786-.7419108.182263-1.195352.932593-1.0137912 1.677373z"/><path d="m80.063532 164.49618c6.5343452 26.590933 11.7175832 41.019297 17.8703743 51.511896 3.0745527 5.24121 6.3831987 9.473037 10.1618747 13.68821 3.779598 4.216098 8.023697 8.421094 13.02906 13.664155.528093.553265 1.402719.571769 1.954774.041634.550212-.530135.569567-1.408142.041473-1.962331-5.034855-5.273593-9.270659-9.470262-12.970076-13.599392-5.549124-6.197859-9.911191-12.222707-14.1645064-21.705922-4.2487069-9.481364-8.3582479-22.432196-13.2391918-42.303463-.1824824-.742928-.9317663-1.198123-1.6727555-1.01401-.7409892.183188-1.1935088.934444-1.0110263 1.679223"/></g><g transform="translate(-4.850261 -14.880365)"><path d="m11.3880113 124.198762c-.1347556 0-.2722801-.039777-.3931909-.123032-.3147374-.217387-.3931909-.650312-.1753669-.965754 1.2691021-1.83993-.2030563-5.311652-1.76197518-8.986885-1.88011707-4.431927-4.00943965-9.454036-2.05917584-13.38736 1.21556907-2.4495385 3.80176842-4.1433096 7.90904432-5.1784433 11.1505618-2.8103094 11.0638013-6.3588107 10.9336607-11.7305904-.0775306-3.2053068-.166137-6.839838 1.8875009-11.1496574 1.827507-3.8361926 4.215265-6.1710251 7.0986649-6.9397437 5.0856383-1.3616772 10.8422854 2.2182759 16.3008089 5.9989653 4.6213776 3.2016066 6.7359324 4.6668897 7.6210735 5.2811246.0036919.0018501.0073838.0046252.0110758.0064753.0369193.0249764.0729157.0508779.107989.0749293.3239672.2238627.443032.3071174.4504159.3126677l-.0110758.0148009c.3384983.2895414.4624147.5522563.1882886.9509539-.1042971.1517086-.2732031.2488391-.4531848.282141-.1744439.0305267-.3627325-.0092505-.5113328-.1073061l-.0119988-.0083255c-.000923 0-.0018459-.000925-.0027689-.0018501l-8.1767095-5.6640962c-5.1908583-3.596604-10.6336911-7.0072725-15.1563095-5.800079-2.5086687.669738-4.5383091 2.6965279-6.205217 6.1969265-1.9114985 4.0101024-1.8275071 7.4679486-1.7536607 10.5187716.1365938 5.6030428.2436599 10.0284938-11.9794085 13.1098436-3.6910104.9306028-5.98370106 2.3857103-7.0063666 4.449502-1.66690792 3.362566.33042804 8.072008 2.0924032 12.227344 1.7121341 4.037854 3.329201 7.85092 1.6272197 10.319885-.1338326.194261-.3507337.298792-.5704037.298792" fill="#004293"/><path d="m.90799688 127.678532 6.49595678-9.419809 7.53523604 2.196074 1.2607952 6.921243-6.49595674 9.419809-7.53615902-2.196999z" fill="#006add"/><path d="m2.77196174 134.052699 6.64640307 1.937985 6.04923289-8.773198-1.1325006-6.215428-6.64548009-1.937059-6.04923285 8.771347zm6.93252791 3.437495c-.06460883 0-.13014065-.009251-.1938265-.027752l-7.53615902-2.196999c-.25197445-.074005-.44026305-.283067-.48825819-.541156l-1.25987226-6.921243c-.03230442-.180385.00738386-.367246.11168098-.518954l6.49595679-9.41981c.16982893-.245138.47533642-.35707.76330722-.27104l7.53523603 2.196075c.2519745.073079.4402631.283066.4882582.541155l1.2607952 6.920318c.0323045.18131-.0073838.368171-.1116809.519879l-6.4959568 9.420735c-.1319866.190561-.34611878.298792-.56948075.298792z" fill="#004293"/><path d="m111.764296 99.5267803-43.4143676 15.2439397c-9.0083174 3.162754-13.7533748 13.04694-10.5976947 22.076377 3.156603 9.028512 13.01868 13.783282 22.0279205 10.620528 5.1640918-1.814028 8.9169421-5.839857 10.5930798-10.643654l17.915107-6.290357c4.302025 2.703928 9.740243 3.504099 14.905258 1.690071 9.00924-3.162754 13.753375-13.04694 10.596772-22.076377-3.156603-9.028512-13.016835-13.7842071-22.026075-10.6205277" fill="#bc1849"/><path d="m2.48352945 47.3155238 15.30952475-2.9472172-10.21650265 10.0858471z" fill="#006add"/><path d="m3.67519324 47.7924809 3.99282596 5.5974925 8.0105725-7.9073485zm3.90145061 7.3550922c-.02030564 0-.03968829-.0009251-.05999392-.0027752-.20213335-.0166509-.38580704-.123032-.50394891-.2867663l-5.09209911-7.1386299c-.13752452-.1924109-.16705999-.4421751-.07937657-.6614125.08676043-.2192374.27966395-.3792715.51133277-.423674l15.30952479-2.9462921c.3018155-.0610535.6017851.0869549.7439245.3579953.1412165.2701153.0904524.6031342-.1273717.8168213l-10.21650261 10.084922c-.13014066.1285823-.30458451.1998114-.48548924.1998114z" fill="#004293"/><path d="m284.027785 102.579268-3.511029-12.1218871 11.459761 9.3707815z" fill="#004293"/><path d="m111.764296 99.5267803-43.4143676 15.2439397c-9.0083174 3.162754-13.7533748 13.04694-10.5976947 22.076377 3.156603 9.028512 13.01868 13.783282 22.0279205 10.620528 5.1640918-1.814028 8.9169421-5.839857 10.5930798-10.643654l17.915107-6.290357c4.302025 2.703928 9.740243 3.504099 14.905258 1.690071 9.00924-3.162754 13.753375-13.04694 10.596772-22.076377-3.156603-9.028512-13.016835-13.7842071-22.026075-10.6205277" fill="#006add"/><path d="m111.764296 99.5267803h.00923zm.2289.6549367-43.4143677 15.24394c-8.6345092 3.031397-13.1968159 12.538161-10.1731224 21.192027 3.0255394 8.652941 12.5147311 13.230101 21.1455484 10.195003 4.7819767-1.67897 8.4886778-5.404156 10.1685075-10.218129.0692238-.198886.2261309-.35522.4245724-.425524l17.9151068-6.290357c.20121-.071229.418111-.044403.59717.066604 4.311255 2.711329 9.526111 3.303362 14.308088 1.623467 4.18296-1.468058 7.544466-4.481879 9.466117-8.483656 1.921651-4.002702 2.17178-8.516033.706082-12.708371-3.025539-8.652941-12.512885-13.2254754-21.143702-10.195004zm-37.911541 48.955627c-7.426324 0-14.3911563-4.649313-16.9828935-12.060834-3.2756679-9.375407 1.6678309-19.675866 11.0222671-22.960727l43.4143674-15.2439398c4.530002-1.5892402 9.410738-1.3181998 13.736761.7677935 4.326946 2.0869183 7.584154 5.7362503 9.171686 10.2782583 1.587531 4.542932 1.316174 9.431835-.766076 13.768481-2.082251 4.336646-5.72342 7.601156-10.255268 9.192246-5.077332 1.780726-10.60231 1.202568-15.215381-1.580915l-17.2939387 6.072045c-1.8699643 5.061887-5.8277169 8.969309-10.9041253 10.75281-1.9585706.687314-3.9595985 1.013857-5.927399 1.014782z" fill="#004293"/><path d="m76.9396729 136.801677-4.7875146 1.68082-4.4709313-12.7944 4.7865916-1.679896z" fill="#004293"/><path d="m66.766089 135.88569-1.6770607-4.798247 12.7657826-4.481879 1.6770608 4.797322z" fill="#004293"/><path d="m90.0579429 129.303664c-.1541382-.442175.0775306-.925052.5187167-1.079536l3.1916764-1.120238c.440263-.155409.9229833.077704 1.0771215.519879.1541383.440325-.0775306.925053-.5187166 1.079536l-3.1907534 1.120239c-.4411861.154484-.9239064-.077705-1.0780446-.51988" fill="#004293"/><path d="m99.0651528 126.141002c-.1541382-.44125.0775306-.925052.5187166-1.079536l3.1916766-1.120238c.43934-.155409.922983.077704 1.077121.519879.154139.44125-.07753.925053-.518716 1.079536l-3.191677 1.120239c-.4411857.154484-.922983-.077704-1.0771212-.51988" fill="#004293"/><path d="m118.123282 109.314761c.505795 1.447707-.254743 3.033247-1.700135 3.540175-1.444469.507854-3.026463-.254389-3.53318-1.703021-.506718-1.447707.254743-3.033247 1.700135-3.541101 1.444469-.507854 3.026462.256239 3.53318 1.703947" fill="#006add"/><path d="m115.50847 108.147622c-.231669 0-.46426.038852-.689468.118407-.524255.184085-.945135.561506-1.186957 1.06381-.240899.501378-.27228 1.06751-.088606 1.59294.183673.52543.561174.947254 1.061431 1.188693.500257.242363 1.065122.273815 1.589377.088805 1.082659-.379272 1.653986-1.570739 1.275563-2.655826-.183674-.526355-.560251-.948179-1.061431-1.189617-.286125-.137833-.592555-.207212-.899909-.207212m.000923 5.55864c-1.430624 0-2.772642-.896376-3.272899-2.324657-.305507-.875099-.252897-1.817728.147678-2.65305.401497-.836248 1.103888-1.465283 1.97703-1.772401.873142-.307117 1.813662-.253464 2.647116.148009.834377.402397 1.462006 1.105437 1.768436 1.981462.305508.8751.252898 1.817728-.147677 2.653051-.402421.835322-1.102965 1.465283-1.97703 1.771475-.377501.132283-.763308.196111-1.142654.196111" fill="#004293"/><path d="m125.724419 112.979726c.506718 1.447707-.25382 3.033247-1.700135 3.541101-1.444469.507854-3.026463-.255315-3.532257-1.703947-.506718-1.447707.25382-3.033247 1.699212-3.541101 1.445392-.506928 3.026462.25624 3.53318 1.703947" fill="#006add"/><path d="m123.105085 111.813512c-.227977 0-.458723.037927-.684854.117482-.525177.184085-.946058.561507-1.186034 1.062885-.240898.502304-.27228 1.068436-.088606 1.593866.182751.525429.559328.948178 1.060508 1.189617.50118.240514 1.065123.273816 1.589377.088805.524255-.184085.946058-.562432 1.186957-1.064735.240898-.501379.27228-1.066586.088606-1.592016-.299969-.857523-1.105734-1.395904-1.965954-1.395904m0 5.559566c-.513179 0-1.022666-.115632-1.498925-.345045-.833454-.402398-1.462006-1.106363-1.767513-1.981462-.305508-.8751-.252898-1.817728.146754-2.653051.401498-.835322 1.102965-1.465283 1.97703-1.7724 1.80351-.630886 3.784232.323768 4.415553 2.12947.305507.8751.252897 1.817729-.147678 2.653051-.401497.836247-1.103888 1.465283-1.97703 1.7724-.374731.131358-.762384.197037-1.148191.197037" fill="#004293"/><path d="m114.465591 116.932938c.506718 1.447707-.25382 3.033247-1.699212 3.541101-1.445392.507853-3.027385-.255315-3.53318-1.703947-.506718-1.447707.25382-3.033247 1.700135-3.541101 1.444469-.506929 3.026463.25624 3.532257 1.703947" fill="#006add"/><path d="m111.84718 115.766631c-.227054 0-.458723.037928-.684854.117482-.525177.184086-.946981.561507-1.186956 1.06381-.240899.501379-.27228 1.067511-.088607 1.592941.182751.52543.559328.948179 1.060508 1.189617.500257.240514 1.065123.273816 1.5903.088805.524255-.184085.945135-.562432 1.186034-1.06381.240899-.502303.27228-1.067511.088606-1.59294-.299046-.857524-1.104811-1.395905-1.965031-1.395905m0 5.559566c-.514102 0-1.023589-.115632-1.499848-.345045-.833454-.402398-1.462006-1.106362-1.767513-1.981462-.305508-.8751-.252898-1.817728.147677-2.653051.401498-.836247 1.102965-1.465283 1.977031-1.7724.873142-.306193 1.813662-.253465 2.647116.148008.833454.403323 1.462005 1.105438 1.767513 1.981463.305507.875099.252897 1.817728-.146754 2.65305-.401498.835323-1.103889 1.465283-1.977031 1.772401-.374731.131357-.762384.197036-1.148191.197036" fill="#004293"/><path d="m122.067559 120.597903c.505795 1.448632-.254743 3.034172-1.700135 3.541101-1.444469.507854-3.026463-.25439-3.53318-1.703947-.505795-1.447707.254743-3.033247 1.700135-3.540176 1.444469-.507853 3.026462.255315 3.53318 1.703022" fill="#006add"/><path d="m119.452747 119.431597c-.231669 0-.46426.038852-.689468.118407-1.08266.379271-1.653986 1.570739-1.275563 2.655825.183673.52543.561174.948179 1.061431 1.189618.499334.242363 1.065122.273815 1.589377.088805 1.082659-.379272 1.653986-1.571664 1.275563-2.656751-.183674-.526355-.560251-.948179-1.060508-1.188692-.286125-.138758-.592555-.207212-.900832-.207212m-.004615 5.559565c-.513178 0-1.022665-.115631-1.498925-.345044-.834377-.402398-1.462005-1.106363-1.768436-1.981463-.305507-.875099-.252897-1.817728.147678-2.65305.40242-.835323 1.103888-1.465283 1.97703-1.771476.872219-.307117 1.813662-.253464 2.647116.147084.833454.402397 1.462006 1.105437 1.768436 1.981462.631321 1.808478-.323044 3.792715-2.124707 4.425451-.374732.131357-.762385.197036-1.148192.197036" fill="#004293"/><path d="m48.6877065 152.753374 9.9257629-8.56506-4.0925081 11.935027z" fill="#004293"/><path d="m84.8327496 74.459986-11.8446453 2.2663786 7.6155356-7.0387243z" fill="#004293"/><path d="m20.697129 148.770469-6.7534691-11.246788 11.0481106 6.049843z" fill="#004293"/><path d="m50.6174801 108.499974 6.5790253 9.025737-10.5570835-2.556845z" fill="#006add"/><path d="m47.7295575 114.519106 7.7936714 1.887107-4.8567384-6.663153zm9.4670402 3.70021c-.054456 0-.1079891-.006476-.1624451-.019426l-10.5561605-2.55592c-.2159781-.052728-.3931909-.205362-.4781054-.411649-.0849144-.204436-.0655318-.438475.0507641-.627185l3.9771352-6.468892c.1209109-.197036.332274-.320068.5630199-.329319.2252079-.017576.4494929.098056.5851714.283991l6.5790253 9.025737c.1716749.234963.1790588.551331.0175367.793695-.1310636.196111-.3479647.308968-.5759416.308968z" fill="#004293"/><path d="m118.280097 85.1513724-6.978677 11.1089552.414419-12.6130905z" fill="#006add"/><path d="m112.379926 84.5108661-.301816 9.2116725 5.095791-8.1136352zm-1.078045 12.4428808c-.067377 0-.135678-.0101756-.203056-.0305267-.299047-.0915802-.499334-.3727962-.489181-.6854639l.413496-12.6130905c.007384-.2072117.107066-.4005477.269512-.5263548.163368-.1276573.371039-.17576.576864-.1276573l6.565181 1.5041354c.218747.0508778.399651.2035115.485489.4116483.085837.2081368.065532.4440252-.054456.634586l-6.977754 11.1089551c-.129218.2053617-.35258.3237684-.586095.3237684z" fill="#004293"/><path d="m306.666997 39.7786588-11.979401 5.3079511 7.373714-10.2301553z" fill="#006add"/><path d="m302.130442 35.9447789-5.384685 7.4716488 8.748959-3.8768949zm-7.442015 9.8360829c-.203979 0-.403344-.0906552-.538099-.2580897-.196596-.2423637-.206749-.5883333-.023998-.8427228l7.372791-10.2301552c.121834-.1683596.311045-.2728905.517794-.2858413.196595-.0166509.407958.0656788.549175.2183124l4.605687 4.9222042c.153215.1637343.217824.3922223.173521.6123848-.044304.2201624-.193827.4051729-.397806.4958281l-11.979401 5.3079511c-.090452.0407023-.18552.0601284-.279664.0601284z" fill="#004293"/><path d="m2.77196174 134.052699 6.05015583 1.76315-.98297726-5.393981-6.04830986-1.76315zm6.93252791 3.437495c-.06553182 0-.13014065-.009251-.1938265-.027752l-7.53523603-2.196999c-.25289744-.074005-.44118604-.283067-.48918118-.541156l-1.25987226-6.921243c-.04245724-.236813.03968828-.478252.21874705-.639211.17628982-.160959.42457234-.220163.65624116-.150784l7.53523603 2.197c.25197445.073079.44026306.282141.48825819.541156l1.26079529 6.920317c.0424572.236814-.0396883.479177-.2169011.639212-.1292177.116556-.2953547.17946-.46426065.17946z" fill="#004293"/><path d="m8.44240222 130.569321c-.13475556 0-.27228008-.039777-.3931909-.123032-.31473732-.217387-.39319091-.650312-.17536684-.965755l6.49595682-9.419809c.217824-.313593.6470113-.394072.9635946-.176685.3147373.218312.3931909.650312.1753668.965755l-6.49595677 9.420734c-.13383258.194261-.35073367.298792-.57040371.298792" fill="#004293"/><path d="m68.6761107 77.1773276-9.3996623-6.5114443-6.2735178 4.724243 1.2598722 6.9212425 9.3987394 6.5105193 6.2753638-4.7242429z" fill="#006add"/><path d="m54.8917237 81.9037907 8.752651 6.063719 5.5342082-4.1664364-1.1315776-6.2163526-8.7526511-6.0637189-5.5342081 4.1664363zm8.7701877 7.6122568c-.1366015 0-.275049-.0407023-.3941139-.123032l-9.3987394-6.5105193c-.1504463-.1054559-.2547434-.26549-.2879708-.4468003l-1.2598722-6.9203175c-.0470722-.2590147.055379-.5217296.2658192-.6799136l6.2744407-4.724243c.2362838-.1785351.5620969-.1868606.8094564-.0166509l9.3987394 6.5114443c.1504463.105456.2547434.2664151.2879708.4468004l1.2607953 6.9203175c.0470721.2590147-.055379.5217296-.2658192.6799136l-6.2753638 4.7233179c-.1227568.0934303-.2695111.1396829-.4153425.1396829z" fill="#004293"/><path d="m63.6618191 88.8217956 6.2753638-4.7233179-1.2607953-6.9212426-6.2753637 4.724243z" fill="#006add"/><path d="m63.1588855 82.1982349.9820543 5.394906 5.0376431-3.7927151-.9820543-5.394906zm.5030259 7.3171651c-.0849144 0-.1707519-.0148009-.2528974-.0481028-.223362-.0869549-.3848841-.2839911-.4282643-.5208045l-1.2617182-6.9212426c-.0461492-.2580896.056302-.5208045.2667422-.6789885l6.2744407-4.7233179c.1910576-.1461583.4411861-.1822353.66824-.0915802.223362.08788.385807.2849162.4291872.5217296l1.2607953 6.9203175c.0470721.2580897-.056302.5208046-.2658192.6789885l-6.2753638 4.724243c-.1218338.0915802-.2676651.1387579-.4153425.1387579z" fill="#004293"/><path d="m62.4000086 82.5948974c-.1347556 0-.2722801-.0397772-.3931909-.1230319l-9.3978164-6.5105193c-.3147374-.2173874-.3931909-.6503119-.1762899-.9657548.2169011-.3135928.6470114-.3949974.9635947-.17576l9.3987394 6.5105193c.3147373.2173873.3931909.6503119.1753668.9657548-.1338326.194261-.3507337.2987919-.5704037.2987919" fill="#004293"/><path d="m66.1685496 82.9996079 5.4815981 3.7964153" fill="#006add"/><path d="m71.6495939 87.4902751c-.1347556 0-.2722801-.0397773-.3931909-.123032l-5.4815981-3.7964153c-.3147373-.2183124-.3931909-.6503119-.1762898-.9657548.2169011-.3135928.6479343-.3949974.9635946-.176685l5.4825211 3.7973404c.3147373.2173873.3931909.6503119.1753668.9657548-.1338326.194261-.3507337.2987919-.5704037.2987919" fill="#004293"/><path d="m6.19530697 131.975863c.09137535.501379-.24089865.982406-.74115563 1.074911-.50117995.091581-.98113129-.241438-1.07250664-.743742-.09137535-.501378.24089865-.982406.74115562-1.073986.50117996-.09158.98020832.240514 1.07250665.742817" fill="#004293"/><path d="m69.9550888 36.7776961-47.1958304 8.0202049-5.9393978-35.11129156 47.1949074-8.02020492z" fill="#006add"/><path d="m17.6181489 10.2546842 5.7086519 33.7431389 45.8298151-7.7880167-5.708652-33.74313899zm5.1410172 35.2370987c-.1421394 0-.2824329-.0444025-.4005748-.1285823-.1495233-.1063811-.2510515-.2682652-.2815099-.4495755l-5.9393978-35.1112916c-.0646089-.37742141.1892116-.73541671.5667117-.80017038l47.1958304-8.01927987c.1799818-.02960168.3655014.01110063.5159477.11748166.1495233.10730609.2510515.26919027.2815099.45050055l5.9393979 35.11129154c.0646088.3774214-.1892116.7354168-.5667118.7992454l-47.1958304 8.0202049c-.0378423.0064754-.0766076.0101756-.1153729.0101756z" fill="#004293"/><path d="m63.7565172 32.3664909-36.5953666 6.2191277-4.1432723-24.487989 36.5962897-6.21912772z" fill="#006add"/><path d="m23.8167204 14.6657969 3.9106804 23.1189113 35.2302743-5.9860145-3.9106804-23.11983642zm3.3439687 24.6128711c-.1421395 0-.2833559-.0434775-.4014978-.1276573-.1495233-.106381-.2501285-.2682652-.2805869-.4505005l-4.1423493-24.487064c-.0646088-.3774214.1892116-.7354167.5667118-.8001704l36.5953667-6.21820269c.1790587-.02960167.3673473.01202569.5168706.11840672s.2501285.26826522.280587.4495755l4.1432722 24.48798897c.0636858.3774214-.1892116.7354167-.5676348.7992454l-36.5953666 6.2191277c-.0378423.0064754-.0766076.0092506-.1153729.0092506z" fill="#004293"/><path d="m38.6809057 42.092215-1.276486 8.5706112 20.6526754-3.5096491-4.0232844-7.66961z" fill="#006add"/><path d="m39.2911823 42.6920191-1.0605079 7.1266042 18.7697893-3.1895809-3.3458146-6.3782368zm-1.886578 8.6640414c-.1790588 0-.3544256-.070304-.4845662-.1988863-.1578302-.1554088-.2325918-.3774214-.2002874-.5966588l1.2764859-8.5706112c.0443032-.2969418.2741261-.5319051.5694808-.581858l15.3529049-2.6086479c.2944317-.0471777.5879404.0952804.7282339.3616955l4.0232844 7.66961c.1024511.1961111.1061431.4301494.0073839.6299608-.0987593.1988862-.2861249.3385692-.5048719.3764963l-20.6526754 3.508724c-.0378423.0064754-.0766076.0101756-.1153729.0101756z" fill="#004293"/><path d="m43.5437357 28.6202134c-.0876834-.0610535-.1393704-.1452333-.1578301-.2506892l-1.3964738-8.2551683-2.1007101 2.2756291c-.054456.0638286-.1255257.1026808-.2095172.1174817-.1264487.0203511-.2427446-.0194261-.3470418-.122107l-.8131483-.7465173c-.0683008-.0758543-.108912-.1517086-.1209108-.2257128-.0212286-.1276573.0184597-.2442139.1218338-.3487448l3.0947632-3.3616407c.0830685-.0897301.2085942-.1498585.3784231-.1794602l1.4001658-.2377384c.1153729-.0194261.2141321-.0009251.2953546.0564282.0802996.0573532.1310637.1443082.1504463.2617898l1.7582833 10.3892643c.0175367.1073061-.001846.2025865-.058148.2886164-.0563019.0860299-.1430624.1387579-.2593583.159109l-1.4472379.2451389c-.1061431.0185011-.2021333-.0037002-.2888938-.0656787" fill="#004293"/><path d="m287.8206 86.1053791-43.502051-18.6971606 13.847519-32.3629607 43.502051 18.6971606z" fill="#006add"/><path d="m245.228149 67.0442104 42.229257 18.1495294 13.301113-31.0873133-42.229257-18.1495295zm42.59199 19.7544955c-.092299 0-.18552-.0185011-.27228-.0555032l-43.502051-18.6971605c-.351657-.1507836-.514102-.5587317-.363656-.9111767l13.847519-32.3638857c.071993-.1683596.209518-.3024922.379346-.370021.169829-.069379.360887-.0647537.529793.0064753l43.502051 18.6971606c.351657.1507835.514102.5587317.363655.9111767l-13.847519 32.3629607c-.071992.1692846-.209517.3034172-.379346.370946-.082145.0333019-.169829.0490278-.257512.0490278z" fill="#004293"/><path d="m285.030052 79.1096697-33.731349-14.4983473 9.657175-22.5703553 33.732272 14.4974224z" fill="#006add"/><path d="m252.208211 64.2474067 32.458555 13.9507163 9.111692-21.2956329-32.459479-13.9507163zm32.822211 15.5556824c-.093222 0-.186443-.0185011-.273204-.0555032l-33.731349-14.4983473c-.351656-.1507836-.514102-.5587317-.363655-.9111767l9.657174-22.5712803c.149524-.352445.55379-.5134041.909139-.3635456l33.732272 14.4974223c.168906.0721541.301816.2090618.370117.3801965.0683.1702097.065532.3607705-.006461.5309802l-9.658098 22.5712803c-.071993.1692846-.209517.3024921-.379346.370946-.082146.0333019-.169829.0490278-.256589.0490278z" fill="#004293"/><path d="m258.993615 73.7155963-5.644043 6.434665 19.036532 8.181164.758692-8.533609z" fill="#006add"/><g fill="#004293"><path d="m254.499517 79.8901365 17.28194 7.4263212.629475-7.0794265-13.229121-5.6853725zm17.886494 9.1348932c-.093221 0-.185519-.0194261-.273203-.0564282l-19.036531-8.180239c-.20398-.08788-.353503-.2682653-.402421-.4856526-.047995-.2164623.00923-.4431001.155061-.6105346l5.644966-6.434665c.197519-.2266379.516871-.2978669.792843-.1794602l14.151181 6.08222c.275049.1184067.443032.4005477.416265.6993397l-.758692 8.532684c-.020306.2220126-.143986.4208988-.33412.5346803-.108912.0647537-.231669.0980556-.355349.0980556z"/><path d="m267.14365 63.8047691c-.038765-.0971305-.037842-.1951861.004615-.2932416l.320276-.7502176c.113527-.2636399.333197-.44125.661779-.5319051l3.301511-1.3107994c1.34571-.3607705 2.312073-.6789885 2.899091-.9537291.586094-.2756656.970978-.6290357 1.155575-1.0610352.196595-.459751.227977-.8750996.092298-1.2469707-.137524-.370946-.454108-.6632626-.952519-.8778748-.488258-.2099869-.935905-.2312631-1.34294-.0638286-.407036.1665094-.742079.4653014-1.007898.8963758-.0803.104531-.170752.1665095-.271357.1877857-.101528.0194261-.201211.0092505-.299047-.0323769l-1.304175-.5615068c-.086761-.0370021-.148601-.0980556-.181828-.1822353-.032304-.0841798-.033227-.1646594 0-.2432888.266742-.5698324.654395-1.0434592 1.163882-1.4218057.508564-.3783465 1.10758-.6012841 1.796126-.670663.689468-.069379 1.409395.0573532 2.161627.3811216.782689.335794 1.387243.7557679 1.813662 1.2571463.427341.5032285.675624 1.0471594.748539 1.6354928.071993.5864832-.019382 1.1794419-.275049 1.7770258-.280587.6558622-.717158 1.1692663-1.309713 1.5420624-.592555.370021-1.393705.6974896-2.406218.9814807l-2.985851 1.2201442 4.1765 1.7955269c.107066.0471776.178136.1147065.215055.2053616.035996.0915802.031381.1914859-.014768.2987919l-.446724 1.0434592c-.041534.0971305-.109835.1665095-.20121.2081368-.094144.0407024-.192904.0388522-.300893-.0083254l-7.005443-3.0101208c-.096914-.0416273-.166137-.1128564-.204903-.2099869"/><path d="m67.3312317 59.8642306c-5.9384748 0-10.8109039-1.498585-14.5462175-4.4855794-6.9500646-5.5577153-7.3358716-14.1634784-7.3501211-14.527024-.0125171-.3829717.2856066-.7030399.6677217-.7178407.3959598.0194261.7023903.2849161.716235.6678878.003692.0814047.389499 8.3522988 6.8429986 13.502991 5.0302592 4.0119525 12.3504401 5.1377414 21.7611783 3.3440646 13.2669626-2.5290934 21.723336-9.3744817 28.8847633-16.3947049.271358-.2664151.711621-.2627149.978363.0111006.267665.2728905.262127.7122904-.011076.9805556-7.315566 7.1728569-15.9657659 14.1681037-29.592692 16.765651-2.9821592.5689073-5.7667999.8528984-8.3511533.8528984"/><path d="m248.912883 90.6719006c-9.287058 0-20.064735-5.712199-30.858102-16.4640839-.271357-.2701153-.273203-.7095152-.003692-.9805556.269511-.2719654.709774-.2738156.979286-.0037002 12.171381 12.1237377 24.215391 17.6759026 33.915946 15.6537379 6.10738-1.2784225 11.037957-5.6252441 13.525398-11.9267015.141216-.3561452.542714-.5309801.898985-.3894471.355349.140608.52887.5439308.388576.9010011-2.661884 6.7417824-7.957962 11.3975715-14.529604 12.7721995-1.397396.2932416-2.838173.4375498-4.316793.4375498"/><path d="m89.1881234 108.147622c-.2833559 0-.5491751-.174835-.6507032-.457901-2.8594024-7.9239996-3.0901483-19.6351639 2.1127088-25.7312597 2.6738828-3.1322276 6.4562685-4.3264704 10.940122-3.4569211 13.417409 2.6049478 24.363991-6.4078384 24.472903-6.4984936.292586-.2460639.729157-.2072117.975593.086955.244591.2941667.205826.7317165-.08676.9768554-.466107.3903721-11.562212 9.5335907-25.62571 6.7972855-4.026053-.7807442-7.2611096.228488-9.623024 2.996245-4.267875 5.0008336-5.0699475 15.4724276-1.8644263 24.3575565.1301406.360771-.055379.757618-.4153425.88805-.0775306.027752-.1569072.041628-.2353608.041628"/><path d="m255.491909 175.340381c-1.588455 0-3.088303-.312668-4.408169-1.120239-2.328687-1.425506-3.787923-4.155336-4.459855-8.345823-1.826584-11.377221-5.360688-11.599233-10.711222-11.935952-3.193522-.201662-6.814386-.429225-10.919816-2.852862-3.654091-2.158148-5.767723-4.745519-6.282748-7.689961-.907292-5.198795 3.148297-10.633478 7.380175-15.753644l6.297516-7.621507c.001846-.000925.002769-.002775.003692-.004625l.049841-.060129.004615.002775c.117218-.113781.282432-.204436.438417-.218312.181827-.019426.392268.004625.533484.122107.371039.308967.323967.596659.075685.965755l.014767.012025c-.005538.007401-.099682.121182-.35904.434775-.023998.029602-.049841.059203-.074762.08973-.001846.002775-.003692.00555-.006461.008325-.686699.830698-2.325918 2.814935-5.912631 7.154356-4.02513 4.870402-7.886893 10.012768-7.081128 14.62878.447647 2.562395 2.28623 4.764945 5.621891 6.733457 3.819305 2.256203 7.264802 2.472665 10.303263 2.664151 5.581281.350595 9.989449.628111 11.990477 13.099668.604554 3.766814 1.852428 6.182126 3.81469 7.382844 3.199983 1.956486 8.05303.371871 12.336596-1.029583 4.161732-1.358903 8.091795-2.6438 10.397407-.728017.294432.244214.335043.681764.090452.976856-.243667.294166-.682084.334869-.973747.09158-1.720441-1.427356-5.298847-.257165-9.084925.97963-2.955393.96483-6.166452 2.01384-9.078464 2.01384"/></g><path d="m277.336156 182.640525-8.799724-7.304215 2.838174-7.332891 6.987907-.658637 8.799723 7.304214-2.838174 7.333816z" fill="#006add"/><path d="m269.361856 175.121791 8.195169 6.801911 6.27721-.591109 2.503131-6.467967-8.195169-6.802836-6.27721.592034zm7.974576 8.212616c-.160599 0-.317506-.056429-.442109-.159109l-8.799723-7.30329c-.2289-.191486-.311968-.507854-.203979-.786294l2.838174-7.333816c.095067-.244214.320275-.414424.580556-.4394l6.98883-.658638c.183674-.01295.364578.039778.505795.157259l8.800646 7.304215c.2289.189635.311968.506928.203056.785369l-2.838173 7.332891c-.094145.245139-.320276.415349-.580557.440325l-6.987907.657712c-.021228.001851-.04338.002776-.064609.002776z" fill="#004293"/><path d="m231.723242 94.2248421 1.224798 12.0229069-6.335357-8.216316z" fill="#004293"/><path d="m300.019486 164.7131-11.766191 5.766777 6.974062-10.506746z" fill="#004293"/><path d="m280.173591 176.000776c-.155984 0-.312891-.052728-.442109-.160034l-8.7988-7.30329c-.294432-.244214-.335043-.681763-.090453-.976855.241822-.295092.680239-.335794.973748-.09158l8.799723 7.304214c.294432.244214.335043.680839.090452.976855-.135678.16466-.33412.25069-.532561.25069" fill="#004293"/><path d="m233.022064 110.592165-7.287877 8.818526 4.150656 6.676103 6.98883-.658637 7.286954-8.818525-4.150656-6.675179z" fill="#006add"/><path d="m226.585547 119.468691 3.660552 5.887034 6.27721-.591108 6.785773-8.212616-3.660552-5.887034-6.275363.591109zm3.298743 7.311615c-.23813 0-.460569-.122107-.587018-.326543l-4.151579-6.676104c-.156907-.252539-.134756-.579083.055379-.809421l7.287877-8.818525c.116295-.142458.285201-.231263.467952-.248839l6.98883-.657713c.252897-.018501.513179.100831.652549.324694l4.150656 6.675179c.15783.252539.134756.579082-.055379.80942l-7.286953 8.818526c-.116296.141533-.285202.231263-.467953.247914l-6.98883.658637c-.022151.00185-.04338.002775-.065531.002775z" fill="#004293"/><path d="m244.160996 116.609539-4.150656-6.675178-6.987907.657712 4.150656 6.675179z" fill="#006add"/><path d="m234.202006 111.177539 3.33197 5.358829 5.447447-.512479-3.332893-5.358829zm2.971083 6.783409c-.23813 0-.460569-.122106-.58794-.327468l-4.150656-6.674254c-.127372-.204436-.138448-.458826-.032305-.675288.106143-.214612.316583-.359845.554713-.382972l6.98883-.657712c.252897-.018501.513179.100831.652549.324693l4.150656 6.675179c.126449.203512.138448.458826.032305.674363-.106143.214612-.316584.360771-.555636.382972l-6.987907.657712c-.021229.00185-.04338.002775-.064609.002775z" fill="#004293"/><path d="m229.884474 126.780584c-.155984 0-.312891-.052728-.442109-.160034-.294432-.244214-.335043-.680839-.090452-.976856l7.287876-8.81945c.242745-.296017.681162-.335794.974671-.090655.294431.243289.335043.680838.091375.97593l-7.288799 8.820376c-.135679.164659-.33412.250689-.532562.250689" fill="#004293"/><path d="m238.59153 113.601269 4.250338-5.144217" fill="#006add"/><path d="m238.59153 114.295058c-.155984 0-.312892-.052728-.442109-.160034-.294432-.244214-.335043-.680839-.090453-.976855l4.250339-5.143292c.242744-.295092.682084-.335794.97467-.09158.294432.244213.335043.681763.091376.976855l-4.251262 5.144217c-.135678.164659-.33412.250689-.532561.250689" fill="#004293"/></g></g></svg>