<?xml version="1.0" encoding="utf-8"?>
<!-- Generator: Adobe Illustrator 24.0.2, SVG Export Plug-In . SVG Version: 6.00 Build 0)  -->
<svg version="1.1" id="Entire" xmlns="http://www.w3.org/2000/svg" xmlns:xlink="http://www.w3.org/1999/xlink" x="0px" y="0px"
	 viewBox="0 0 260 100" style="enable-background:new 0 0 260 100;" xml:space="preserve">
<style type="text/css">
	.st0{fill:#282827;}
	.st1{fill:#29B57F;}
	.st2{fill-rule:evenodd;clip-rule:evenodd;fill:#4A79BC;}
	.st3{fill:#4A79BC;}
	.st4{fill:#FFFFFF;}
	.st5{fill-rule:evenodd;clip-rule:evenodd;fill:url(#brown_1_);}
	.st6{fill:#5B4538;}
	.st7{fill-rule:evenodd;clip-rule:evenodd;fill:#5B4538;}
	.st8{fill:url(#SVGID_1_);}
	.st9{fill:#C8BCA8;}
	.st10{fill-rule:evenodd;clip-rule:evenodd;fill:url(#SVGID_2_);}
	.st11{fill-rule:evenodd;clip-rule:evenodd;fill:url(#SVGID_3_);}
	.st12{fill:#A99675;}
	.st13{fill-rule:evenodd;clip-rule:evenodd;fill:url(#SVGID_4_);}
	.st14{fill:url(#SVGID_5_);}
	.st15{fill:#B5A584;}
	.st16{fill:#CABB9C;}
	.st17{fill:url(#_x35__1_);}
	.st18{fill:url(#SVGID_6_);}
	.st19{fill:#F8F3DE;}
</style>
<g>
	<path class="st0" d="M117.14,94.72h-0.61c-0.07,0-0.13-0.02-0.17-0.05c-0.04-0.04-0.08-0.08-0.1-0.14l-0.55-1.47h-2.62l-0.55,1.47
		c-0.02,0.05-0.05,0.1-0.09,0.14c-0.05,0.04-0.1,0.06-0.17,0.06h-0.61l2.34-6.07h0.8L117.14,94.72z M115.49,92.47L114.58,90
		c-0.03-0.07-0.06-0.16-0.09-0.26c-0.03-0.1-0.06-0.2-0.09-0.31c-0.06,0.23-0.12,0.42-0.18,0.57l-0.92,2.46H115.49z"/>
	<path class="st0" d="M118.33,91.05c0.09-0.1,0.19-0.2,0.29-0.28c0.1-0.09,0.21-0.16,0.32-0.22c0.11-0.06,0.23-0.11,0.36-0.14
		c0.13-0.03,0.26-0.05,0.41-0.05c0.23,0,0.42,0.04,0.6,0.12c0.17,0.08,0.32,0.19,0.43,0.33c0.12,0.14,0.2,0.31,0.26,0.51
		c0.06,0.2,0.09,0.42,0.09,0.67v2.73h-0.73v-2.73c0-0.32-0.07-0.58-0.21-0.76c-0.14-0.18-0.36-0.27-0.65-0.27
		c-0.22,0-0.42,0.05-0.6,0.16c-0.19,0.11-0.36,0.25-0.52,0.44v3.16h-0.73v-4.29h0.44c0.1,0,0.17,0.05,0.19,0.16L118.33,91.05z"/>
	<path class="st0" d="M176.56,94.05l0,0.67h-3.6v-6.07h3.6v0.67h-2.81v2.01h2.27v0.64h-2.27v2.07H176.56z"/>
	<path class="st0" d="M180.66,88.49v6.24h-0.43c-0.1,0-0.17-0.05-0.19-0.16l-0.07-0.52c-0.18,0.22-0.38,0.4-0.6,0.53
		c-0.23,0.14-0.49,0.2-0.78,0.2c-0.24,0-0.45-0.05-0.65-0.14c-0.19-0.09-0.36-0.23-0.49-0.42c-0.14-0.18-0.24-0.41-0.32-0.69
		c-0.07-0.27-0.11-0.59-0.11-0.94c0-0.32,0.04-0.61,0.12-0.88c0.08-0.27,0.2-0.51,0.35-0.71c0.15-0.2,0.34-0.36,0.56-0.47
		c0.22-0.11,0.47-0.17,0.75-0.17c0.25,0,0.47,0.04,0.65,0.13c0.18,0.09,0.34,0.21,0.48,0.37v-2.37H180.66z M179.93,91.45
		c-0.14-0.19-0.28-0.32-0.44-0.4c-0.16-0.07-0.33-0.11-0.53-0.11c-0.38,0-0.68,0.14-0.88,0.43c-0.21,0.29-0.31,0.69-0.31,1.22
		c0,0.28,0.02,0.52,0.07,0.72c0.05,0.2,0.11,0.36,0.2,0.49c0.09,0.13,0.2,0.22,0.33,0.28c0.13,0.06,0.28,0.09,0.44,0.09
		c0.24,0,0.45-0.06,0.63-0.17c0.18-0.11,0.34-0.27,0.49-0.48V91.45z"/>
	<path class="st0" d="M185.12,90.43v4.29h-0.43c-0.1,0-0.17-0.05-0.2-0.16l-0.06-0.46c-0.18,0.21-0.38,0.37-0.6,0.5
		c-0.22,0.13-0.48,0.19-0.77,0.19c-0.23,0-0.43-0.04-0.6-0.12s-0.32-0.19-0.43-0.33c-0.12-0.14-0.2-0.31-0.26-0.51
		c-0.06-0.2-0.09-0.42-0.09-0.66v-2.74h0.73v2.74c0,0.32,0.07,0.58,0.21,0.75c0.14,0.18,0.36,0.27,0.65,0.27
		c0.22,0,0.42-0.05,0.6-0.16c0.19-0.11,0.36-0.25,0.52-0.44v-3.16H185.12z"/>
	<path class="st0" d="M189.07,91.19c-0.02,0.03-0.04,0.05-0.07,0.07c-0.02,0.02-0.05,0.02-0.09,0.02c-0.04,0-0.09-0.02-0.13-0.05
		c-0.05-0.04-0.11-0.08-0.18-0.12s-0.16-0.08-0.27-0.12c-0.1-0.04-0.23-0.05-0.38-0.05c-0.2,0-0.38,0.04-0.54,0.11
		c-0.15,0.07-0.28,0.18-0.39,0.32c-0.1,0.14-0.18,0.31-0.24,0.51c-0.05,0.2-0.08,0.42-0.08,0.67c0,0.26,0.03,0.49,0.09,0.69
		c0.06,0.2,0.14,0.37,0.24,0.51c0.11,0.14,0.23,0.24,0.38,0.31c0.15,0.07,0.32,0.11,0.5,0.11c0.18,0,0.32-0.02,0.44-0.07
		c0.11-0.04,0.21-0.09,0.28-0.15c0.08-0.05,0.14-0.1,0.19-0.15c0.05-0.04,0.1-0.06,0.15-0.06c0.06,0,0.11,0.02,0.14,0.07l0.2,0.28
		c-0.09,0.12-0.19,0.22-0.31,0.3c-0.11,0.08-0.24,0.15-0.37,0.2s-0.27,0.09-0.42,0.12c-0.14,0.03-0.29,0.04-0.44,0.04
		c-0.26,0-0.5-0.05-0.72-0.15c-0.22-0.1-0.41-0.24-0.58-0.43c-0.16-0.19-0.29-0.42-0.38-0.69c-0.09-0.27-0.14-0.59-0.14-0.93
		c0-0.32,0.04-0.61,0.13-0.88c0.09-0.27,0.21-0.51,0.37-0.7c0.16-0.2,0.37-0.35,0.61-0.46c0.24-0.11,0.52-0.17,0.83-0.17
		c0.29,0,0.55,0.05,0.77,0.15c0.22,0.1,0.42,0.23,0.59,0.41L189.07,91.19z"/>
	<path class="st0" d="M189.9,91.04c0.23-0.23,0.47-0.4,0.74-0.51c0.26-0.11,0.56-0.17,0.88-0.17c0.23,0,0.44,0.04,0.61,0.12
		c0.18,0.08,0.33,0.19,0.45,0.33c0.12,0.14,0.21,0.31,0.28,0.51c0.06,0.2,0.09,0.42,0.09,0.66v2.74h-0.32
		c-0.07,0-0.13-0.01-0.16-0.04c-0.04-0.02-0.07-0.07-0.09-0.14l-0.08-0.41c-0.11,0.1-0.21,0.2-0.32,0.28
		c-0.1,0.08-0.21,0.15-0.33,0.2c-0.11,0.05-0.24,0.1-0.37,0.13c-0.13,0.03-0.27,0.05-0.43,0.05c-0.16,0-0.31-0.02-0.45-0.07
		c-0.14-0.05-0.26-0.12-0.37-0.21c-0.1-0.09-0.19-0.21-0.25-0.35c-0.06-0.14-0.09-0.31-0.09-0.51c0-0.17,0.05-0.33,0.13-0.49
		c0.09-0.16,0.24-0.29,0.44-0.42c0.2-0.12,0.46-0.22,0.79-0.3c0.32-0.08,0.72-0.12,1.19-0.13v-0.33c0-0.33-0.07-0.59-0.21-0.76
		c-0.14-0.17-0.34-0.26-0.61-0.26c-0.18,0-0.33,0.02-0.45,0.07c-0.12,0.05-0.23,0.1-0.31,0.16c-0.09,0.06-0.16,0.11-0.23,0.16
		c-0.06,0.05-0.13,0.07-0.19,0.07c-0.05,0-0.09-0.01-0.13-0.04c-0.04-0.03-0.06-0.06-0.09-0.1L189.9,91.04z M192.25,92.79
		c-0.33,0.01-0.62,0.04-0.85,0.08c-0.23,0.05-0.43,0.1-0.57,0.17c-0.15,0.07-0.26,0.15-0.32,0.25c-0.07,0.1-0.1,0.2-0.1,0.32
		c0,0.11,0.02,0.21,0.05,0.29s0.08,0.15,0.14,0.2c0.06,0.05,0.13,0.09,0.22,0.11c0.08,0.02,0.17,0.04,0.27,0.04
		c0.13,0,0.24-0.01,0.35-0.04c0.11-0.03,0.21-0.07,0.3-0.12c0.09-0.05,0.18-0.11,0.27-0.18c0.09-0.07,0.17-0.15,0.25-0.24V92.79z"/>
	<path class="st0" d="M195.2,94.79c-0.33,0-0.58-0.09-0.75-0.28c-0.18-0.19-0.26-0.46-0.26-0.82v-2.63h-0.5
		c-0.04,0-0.08-0.01-0.11-0.04c-0.03-0.03-0.05-0.07-0.05-0.12v-0.3l0.68-0.09l0.17-1.33c0.01-0.04,0.03-0.08,0.05-0.1
		c0.03-0.03,0.07-0.04,0.11-0.04h0.37v1.48h1.2v0.55h-1.2v2.57c0,0.18,0.04,0.32,0.13,0.4c0.08,0.09,0.19,0.13,0.32,0.13
		c0.08,0,0.14-0.01,0.2-0.03c0.06-0.02,0.1-0.04,0.14-0.07c0.04-0.03,0.08-0.05,0.1-0.07c0.03-0.02,0.05-0.03,0.08-0.03
		c0.04,0,0.07,0.02,0.1,0.07l0.21,0.36c-0.13,0.12-0.28,0.22-0.45,0.29C195.57,94.75,195.38,94.79,195.2,94.79z"/>
	<g>
		<path class="st0" d="M216.48,94.72h-0.79v-6.07h0.79V94.72z"/>
		<path class="st0" d="M218.34,91.05c0.09-0.1,0.19-0.2,0.29-0.28c0.1-0.09,0.21-0.16,0.32-0.22c0.11-0.06,0.23-0.11,0.36-0.14
			c0.13-0.03,0.26-0.05,0.41-0.05c0.23,0,0.42,0.04,0.6,0.12c0.17,0.08,0.32,0.19,0.43,0.33c0.12,0.14,0.2,0.31,0.26,0.51
			c0.06,0.2,0.09,0.42,0.09,0.67v2.73h-0.73v-2.73c0-0.32-0.07-0.58-0.21-0.76c-0.14-0.18-0.36-0.27-0.65-0.27
			c-0.22,0-0.42,0.05-0.6,0.16c-0.19,0.11-0.36,0.25-0.52,0.44v3.16h-0.73v-4.29h0.44c0.1,0,0.17,0.05,0.19,0.16L218.34,91.05z"/>
		<path class="st0" d="M223.05,89.09c0,0.07-0.01,0.14-0.04,0.21s-0.07,0.12-0.11,0.17c-0.05,0.05-0.1,0.09-0.17,0.12
			c-0.06,0.03-0.13,0.04-0.2,0.04c-0.07,0-0.14-0.01-0.2-0.04c-0.06-0.03-0.11-0.07-0.16-0.12c-0.05-0.05-0.08-0.11-0.11-0.17
			c-0.03-0.06-0.04-0.13-0.04-0.21c0-0.07,0.01-0.14,0.04-0.21c0.03-0.07,0.06-0.12,0.11-0.17c0.05-0.05,0.1-0.09,0.16-0.12
			c0.06-0.03,0.13-0.04,0.2-0.04c0.07,0,0.14,0.01,0.2,0.04c0.06,0.03,0.12,0.07,0.17,0.12c0.05,0.05,0.09,0.11,0.11,0.17
			S223.05,89.01,223.05,89.09z M222.89,90.43v4.29h-0.73v-4.29H222.89z"/>
	</g>
	<g>
		<path class="st0" d="M225.45,94.79c-0.33,0-0.58-0.09-0.75-0.28c-0.18-0.19-0.26-0.46-0.26-0.82v-2.63h-0.5
			c-0.04,0-0.08-0.01-0.11-0.04c-0.03-0.03-0.05-0.07-0.05-0.12v-0.3l0.68-0.09l0.17-1.33c0.01-0.04,0.03-0.08,0.05-0.1
			c0.03-0.03,0.07-0.04,0.11-0.04h0.37v1.48h1.2v0.55h-1.2v2.57c0,0.18,0.04,0.32,0.13,0.4c0.08,0.09,0.19,0.13,0.32,0.13
			c0.08,0,0.14-0.01,0.2-0.03c0.06-0.02,0.1-0.04,0.14-0.07c0.04-0.03,0.08-0.05,0.1-0.07c0.03-0.02,0.05-0.03,0.08-0.03
			c0.04,0,0.07,0.02,0.1,0.07l0.21,0.36c-0.13,0.12-0.28,0.22-0.45,0.29C225.82,94.75,225.64,94.79,225.45,94.79z"/>
	</g>
	<g>
		<path class="st0" d="M228.11,89.09c0,0.07-0.01,0.14-0.04,0.21s-0.07,0.12-0.11,0.17c-0.05,0.05-0.1,0.09-0.17,0.12
			c-0.06,0.03-0.13,0.04-0.2,0.04c-0.07,0-0.14-0.01-0.2-0.04c-0.06-0.03-0.11-0.07-0.16-0.12c-0.05-0.05-0.08-0.11-0.11-0.17
			c-0.03-0.06-0.04-0.13-0.04-0.21c0-0.07,0.01-0.14,0.04-0.21c0.03-0.07,0.06-0.12,0.11-0.17c0.05-0.05,0.1-0.09,0.16-0.12
			c0.06-0.03,0.13-0.04,0.2-0.04c0.07,0,0.14,0.01,0.2,0.04c0.06,0.03,0.12,0.07,0.17,0.12c0.05,0.05,0.09,0.11,0.11,0.17
			S228.11,89.01,228.11,89.09z M227.96,90.43v4.29h-0.73v-4.29H227.96z"/>
	</g>
	<g>
		<g>
			<path class="st0" d="M229.06,91.04c0.23-0.23,0.47-0.4,0.74-0.51c0.26-0.11,0.56-0.17,0.88-0.17c0.23,0,0.44,0.04,0.61,0.12
				c0.18,0.08,0.33,0.19,0.45,0.33c0.12,0.14,0.21,0.31,0.28,0.51c0.06,0.2,0.09,0.42,0.09,0.66v2.74h-0.32
				c-0.07,0-0.13-0.01-0.16-0.04c-0.04-0.02-0.07-0.07-0.09-0.14l-0.08-0.41c-0.11,0.1-0.21,0.2-0.32,0.28
				c-0.1,0.08-0.21,0.15-0.33,0.2c-0.11,0.05-0.24,0.1-0.37,0.13c-0.13,0.03-0.27,0.05-0.43,0.05c-0.16,0-0.31-0.02-0.45-0.07
				c-0.14-0.05-0.26-0.12-0.37-0.21c-0.1-0.09-0.19-0.21-0.25-0.35c-0.06-0.14-0.09-0.31-0.09-0.51c0-0.17,0.05-0.33,0.13-0.49
				c0.09-0.16,0.24-0.29,0.44-0.42c0.2-0.12,0.46-0.22,0.79-0.3c0.32-0.08,0.72-0.12,1.19-0.13v-0.33c0-0.33-0.07-0.59-0.21-0.76
				c-0.14-0.17-0.34-0.26-0.61-0.26c-0.18,0-0.33,0.02-0.45,0.07c-0.12,0.05-0.23,0.1-0.31,0.16c-0.09,0.06-0.16,0.11-0.23,0.16
				c-0.06,0.05-0.13,0.07-0.19,0.07c-0.05,0-0.09-0.01-0.13-0.04c-0.04-0.03-0.06-0.06-0.09-0.1L229.06,91.04z M231.41,92.79
				c-0.33,0.01-0.62,0.04-0.85,0.08c-0.23,0.05-0.43,0.1-0.57,0.17s-0.26,0.15-0.32,0.25c-0.07,0.1-0.1,0.2-0.1,0.32
				c0,0.11,0.02,0.21,0.05,0.29s0.08,0.15,0.14,0.2c0.06,0.05,0.13,0.09,0.22,0.11c0.08,0.02,0.17,0.04,0.27,0.04
				c0.13,0,0.24-0.01,0.35-0.04c0.11-0.03,0.21-0.07,0.3-0.12c0.09-0.05,0.18-0.11,0.27-0.18c0.09-0.07,0.17-0.15,0.25-0.24V92.79z"
				/>
			<path class="st0" d="M234.36,94.79c-0.33,0-0.58-0.09-0.75-0.28c-0.18-0.19-0.26-0.46-0.26-0.82v-2.63h-0.5
				c-0.04,0-0.08-0.01-0.11-0.04c-0.03-0.03-0.05-0.07-0.05-0.12v-0.3l0.68-0.09l0.17-1.33c0.01-0.04,0.03-0.08,0.05-0.1
				c0.03-0.03,0.07-0.04,0.11-0.04h0.37v1.48h1.2v0.55h-1.2v2.57c0,0.18,0.04,0.32,0.13,0.4c0.08,0.09,0.19,0.13,0.32,0.13
				c0.08,0,0.14-0.01,0.2-0.03c0.06-0.02,0.1-0.04,0.14-0.07c0.04-0.03,0.08-0.05,0.1-0.07c0.03-0.02,0.05-0.03,0.08-0.03
				c0.04,0,0.07,0.02,0.1,0.07l0.21,0.36c-0.13,0.12-0.28,0.22-0.45,0.29C234.73,94.75,234.54,94.79,234.36,94.79z"/>
		</g>
		<g>
			<path class="st0" d="M237.04,89.09c0,0.07-0.01,0.14-0.04,0.21s-0.07,0.12-0.11,0.17c-0.05,0.05-0.1,0.09-0.17,0.12
				c-0.06,0.03-0.13,0.04-0.2,0.04c-0.07,0-0.14-0.01-0.2-0.04c-0.06-0.03-0.11-0.07-0.16-0.12c-0.05-0.05-0.08-0.11-0.11-0.17
				c-0.03-0.06-0.04-0.13-0.04-0.21c0-0.07,0.01-0.14,0.04-0.21c0.03-0.07,0.06-0.12,0.11-0.17c0.05-0.05,0.1-0.09,0.16-0.12
				c0.06-0.03,0.13-0.04,0.2-0.04c0.07,0,0.14,0.01,0.2,0.04c0.06,0.03,0.12,0.07,0.17,0.12c0.05,0.05,0.09,0.11,0.11,0.17
				S237.04,89.01,237.04,89.09z M236.89,90.43v4.29h-0.73v-4.29H236.89z"/>
			<path class="st0" d="M241.54,90.43l-1.68,4.29h-0.65l-1.68-4.29h0.59c0.06,0,0.11,0.02,0.15,0.05c0.04,0.03,0.06,0.07,0.08,0.11
				l1.05,2.76c0.03,0.1,0.06,0.21,0.09,0.31c0.02,0.1,0.05,0.2,0.07,0.3c0.02-0.1,0.05-0.2,0.07-0.3c0.03-0.1,0.05-0.2,0.09-0.31
				l1.06-2.76c0.02-0.05,0.04-0.08,0.08-0.11c0.04-0.03,0.08-0.05,0.14-0.05H241.54z"/>
			<path class="st0" d="M245.36,94.12c-0.09,0.11-0.2,0.21-0.32,0.29c-0.13,0.08-0.26,0.15-0.4,0.21c-0.14,0.05-0.29,0.09-0.44,0.12
				c-0.15,0.03-0.3,0.04-0.45,0.04c-0.29,0-0.55-0.05-0.79-0.15c-0.24-0.1-0.45-0.25-0.62-0.44c-0.18-0.19-0.31-0.43-0.41-0.72
				s-0.15-0.61-0.15-0.98c0-0.3,0.05-0.58,0.13-0.84c0.09-0.26,0.22-0.48,0.38-0.68c0.17-0.19,0.37-0.34,0.61-0.45
				c0.24-0.11,0.51-0.16,0.81-0.16c0.25,0,0.48,0.04,0.69,0.13c0.21,0.09,0.39,0.21,0.55,0.37c0.15,0.16,0.28,0.36,0.36,0.6
				c0.09,0.24,0.13,0.51,0.13,0.81c0,0.12-0.01,0.2-0.04,0.24c-0.02,0.04-0.07,0.06-0.14,0.06h-2.76c0.01,0.27,0.04,0.51,0.11,0.71
				c0.06,0.2,0.15,0.37,0.27,0.5c0.11,0.13,0.25,0.23,0.41,0.3c0.16,0.07,0.33,0.1,0.53,0.1c0.18,0,0.34-0.02,0.47-0.06
				c0.13-0.05,0.24-0.09,0.34-0.14c0.1-0.05,0.18-0.1,0.24-0.14c0.06-0.04,0.12-0.06,0.16-0.06c0.06,0,0.11,0.02,0.14,0.07
				L245.36,94.12z M244.78,92.11c0-0.17-0.02-0.33-0.07-0.48c-0.05-0.15-0.12-0.27-0.21-0.38c-0.09-0.1-0.2-0.19-0.33-0.24
				c-0.13-0.06-0.28-0.09-0.44-0.09c-0.35,0-0.62,0.1-0.83,0.32c-0.2,0.21-0.33,0.5-0.38,0.87H244.78z"/>
		</g>
	</g>
	<g>
		<path class="st0" d="M200.59,90.36c0.3,0,0.57,0.05,0.82,0.16c0.24,0.1,0.45,0.25,0.62,0.45c0.17,0.19,0.3,0.42,0.39,0.7
			c0.09,0.27,0.14,0.58,0.14,0.91c0,0.34-0.05,0.64-0.14,0.91c-0.09,0.27-0.22,0.5-0.39,0.7c-0.17,0.19-0.38,0.34-0.62,0.44
			c-0.24,0.1-0.51,0.15-0.82,0.15c-0.3,0-0.58-0.05-0.82-0.15c-0.24-0.1-0.45-0.25-0.62-0.44c-0.17-0.19-0.3-0.42-0.39-0.7
			c-0.09-0.27-0.14-0.58-0.14-0.91c0-0.34,0.05-0.64,0.14-0.91c0.09-0.27,0.22-0.51,0.39-0.7c0.17-0.19,0.38-0.34,0.62-0.45
			C200.01,90.42,200.29,90.36,200.59,90.36z M200.59,94.19c0.41,0,0.71-0.14,0.91-0.42c0.2-0.28,0.3-0.68,0.3-1.19
			c0-0.51-0.1-0.91-0.3-1.19c-0.2-0.28-0.51-0.43-0.91-0.43c-0.21,0-0.39,0.04-0.54,0.11c-0.15,0.07-0.28,0.18-0.38,0.32
			c-0.1,0.14-0.18,0.31-0.23,0.51c-0.05,0.2-0.08,0.43-0.08,0.68c0,0.51,0.1,0.9,0.3,1.19C199.87,94.05,200.18,94.19,200.59,94.19z"
			/>
		<path class="st0" d="M204.08,91.05c0.09-0.1,0.19-0.2,0.29-0.28c0.1-0.09,0.21-0.16,0.32-0.22c0.11-0.06,0.23-0.11,0.36-0.14
			c0.13-0.03,0.26-0.05,0.41-0.05c0.23,0,0.42,0.04,0.6,0.12c0.17,0.08,0.32,0.19,0.43,0.33c0.12,0.14,0.2,0.31,0.26,0.51
			c0.06,0.2,0.09,0.42,0.09,0.67v2.73h-0.73v-2.73c0-0.32-0.07-0.58-0.21-0.76c-0.14-0.18-0.36-0.27-0.65-0.27
			c-0.22,0-0.42,0.05-0.6,0.16c-0.19,0.11-0.36,0.25-0.52,0.44v3.16h-0.73v-4.29h0.44c0.1,0,0.17,0.05,0.19,0.16L204.08,91.05z"/>
		<path class="st0" d="M207.76,91.04c0.23-0.23,0.47-0.4,0.74-0.51c0.26-0.11,0.56-0.17,0.88-0.17c0.23,0,0.44,0.04,0.61,0.12
			c0.18,0.08,0.33,0.19,0.45,0.33c0.12,0.14,0.21,0.31,0.28,0.51c0.06,0.2,0.09,0.42,0.09,0.66v2.74h-0.32
			c-0.07,0-0.13-0.01-0.16-0.04c-0.04-0.02-0.07-0.07-0.09-0.14l-0.08-0.41c-0.11,0.1-0.21,0.2-0.32,0.28
			c-0.1,0.08-0.21,0.15-0.33,0.2c-0.11,0.05-0.24,0.1-0.37,0.13c-0.13,0.03-0.27,0.05-0.43,0.05c-0.16,0-0.31-0.02-0.45-0.07
			c-0.14-0.05-0.26-0.12-0.37-0.21c-0.1-0.09-0.19-0.21-0.25-0.35c-0.06-0.14-0.09-0.31-0.09-0.51c0-0.17,0.05-0.33,0.13-0.49
			c0.09-0.16,0.24-0.29,0.44-0.42c0.2-0.12,0.46-0.22,0.79-0.3c0.32-0.08,0.72-0.12,1.19-0.13v-0.33c0-0.33-0.07-0.59-0.21-0.76
			c-0.14-0.17-0.34-0.26-0.61-0.26c-0.18,0-0.33,0.02-0.45,0.07c-0.12,0.05-0.23,0.1-0.31,0.16c-0.09,0.06-0.16,0.11-0.23,0.16
			c-0.06,0.05-0.13,0.07-0.19,0.07c-0.05,0-0.09-0.01-0.13-0.04c-0.04-0.03-0.06-0.06-0.09-0.1L207.76,91.04z M210.1,92.79
			c-0.33,0.01-0.62,0.04-0.85,0.08c-0.23,0.05-0.43,0.1-0.57,0.17c-0.15,0.07-0.26,0.15-0.32,0.25c-0.07,0.1-0.1,0.2-0.1,0.32
			c0,0.11,0.02,0.21,0.05,0.29c0.04,0.08,0.08,0.15,0.14,0.2c0.06,0.05,0.13,0.09,0.22,0.11c0.08,0.02,0.17,0.04,0.27,0.04
			c0.13,0,0.24-0.01,0.35-0.04c0.11-0.03,0.21-0.07,0.3-0.12c0.09-0.05,0.18-0.11,0.27-0.18c0.09-0.07,0.17-0.15,0.25-0.24V92.79z"
			/>
		<path class="st0" d="M212.59,88.49v6.24h-0.73v-6.24H212.59z"/>
	</g>
	<g>
		<path class="st0" d="M197.85,89.09c0,0.07-0.01,0.14-0.04,0.21s-0.07,0.12-0.11,0.17c-0.05,0.05-0.1,0.09-0.17,0.12
			c-0.06,0.03-0.13,0.04-0.2,0.04c-0.07,0-0.14-0.01-0.2-0.04c-0.06-0.03-0.11-0.07-0.16-0.12c-0.05-0.05-0.08-0.11-0.11-0.17
			c-0.03-0.06-0.04-0.13-0.04-0.21c0-0.07,0.01-0.14,0.04-0.21c0.03-0.07,0.06-0.12,0.11-0.17c0.05-0.05,0.1-0.09,0.16-0.12
			c0.06-0.03,0.13-0.04,0.2-0.04c0.07,0,0.14,0.01,0.2,0.04c0.06,0.03,0.12,0.07,0.17,0.12c0.05,0.05,0.09,0.11,0.11,0.17
			S197.85,89.01,197.85,89.09z M197.7,90.43v4.29h-0.73v-4.29H197.7z"/>
	</g>
	<g>
		<path class="st1" d="M124.36,92.83c0,1.08,0.41,1.85,1.64,1.85c0.88,0,1.38-0.54,1.38-0.54l0.07,0.27
			c0.03,0.1,0.07,0.17,0.19,0.17h0.2c0.11,0,0.2-0.09,0.2-0.19v-3.7c0-0.11-0.09-0.19-0.19-0.19h-0.33c-0.11,0-0.2,0.09-0.2,0.2
			v2.73c0,0-0.46,0.58-1.26,0.58c-0.59,0-0.95-0.38-0.95-1.16v-2.16c0-0.11-0.09-0.19-0.19-0.19h-0.35c-0.11,0-0.2,0.09-0.2,0.2
			V92.83z"/>
		<path class="st2" d="M135.5,91.98c-1.09,0-1.69,0.58-1.69,1.36c0,0.82,0.56,1.34,1.3,1.34c0.66,0,1.09-0.32,1.31-0.53l0.08,0.28
			c0.03,0.09,0.06,0.15,0.18,0.15h0.2c0.11,0,0.2-0.09,0.2-0.19v-2.27c0-1.2-0.26-1.73-1.34-1.73c-0.79,0-1.41,0.24-1.47,0.27
			c-0.1,0.04-0.16,0.1-0.12,0.23l0.08,0.26c0.03,0.09,0.1,0.14,0.2,0.1c0.19-0.07,0.69-0.23,1.27-0.23c0.6,0,0.7,0.35,0.69,1.11
			C136.39,92.11,135.95,91.98,135.5,91.98z M135.22,94.07c-0.46,0-0.74-0.32-0.74-0.73c0-0.53,0.42-0.82,1.02-0.82
			c0.47,0,0.76,0.09,0.89,0.16v0.81C136.2,93.75,135.75,94.07,135.22,94.07z"/>
		<path class="st3" d="M138.07,92.54c0,1.23,0.99,2.14,2.17,2.14c0.72,0,1.3-0.37,1.62-0.86c0.06-0.1,0.03-0.21-0.07-0.29
			l-0.12-0.08c-0.12-0.08-0.19-0.1-0.32,0.02c-0.24,0.23-0.49,0.53-1.12,0.53c-0.79,0-1.4-0.65-1.4-1.47c0-0.82,0.61-1.45,1.41-1.45
			c0.41,0,0.76,0.19,0.97,0.43c0.1,0.08,0.15,0.18,0.31,0.04l0.2-0.16c0.1-0.07,0.12-0.19,0.04-0.29c-0.38-0.47-0.88-0.72-1.51-0.72
			C139.09,90.39,138.07,91.34,138.07,92.54z"/>
		<path class="st2" d="M144.57,91.98c-1.09,0-1.69,0.58-1.69,1.36c0,0.82,0.56,1.34,1.3,1.34c0.66,0,1.09-0.32,1.31-0.53l0.08,0.28
			c0.03,0.09,0.06,0.15,0.18,0.15h0.2c0.11,0,0.2-0.09,0.2-0.19v-2.27c0-1.2-0.26-1.73-1.34-1.73c-0.79,0-1.41,0.24-1.47,0.27
			c-0.1,0.04-0.16,0.1-0.12,0.23l0.08,0.26c0.03,0.09,0.1,0.14,0.2,0.1c0.19-0.07,0.69-0.23,1.27-0.23c0.6,0,0.7,0.35,0.69,1.11
			C145.47,92.11,145.02,91.98,144.57,91.98z M144.29,94.07c-0.46,0-0.74-0.32-0.74-0.73c0-0.53,0.42-0.82,1.02-0.82
			c0.47,0,0.76,0.09,0.89,0.16v0.81C145.28,93.75,144.82,94.07,144.29,94.07z"/>
		<path class="st2" d="M149.17,90.39c-1.27,0-2.03,0.94-2.03,2.14c0,1.18,0.85,2.16,1.93,2.16c0.79,0,1.3-0.54,1.3-0.54l0.06,0.28
			c0.02,0.09,0.08,0.16,0.18,0.16h0.22c0.11,0,0.2-0.09,0.2-0.19v-5.81c0-0.1-0.1-0.19-0.2-0.19h-0.33c-0.11,0-0.2,0.09-0.2,0.2
			v2.07C150.31,90.65,149.87,90.39,149.17,90.39z M149.14,94.04c-0.77,0-1.26-0.71-1.26-1.5c0-0.82,0.47-1.46,1.39-1.46
			c0.58,0,1.03,0.25,1.03,0.25v2.05C150.29,93.36,149.9,94.04,149.14,94.04z"/>
		<path class="st2" d="M154.1,90.39c-1.28,0-2.07,0.99-2.07,2.15c0,1.18,0.79,2.15,2.07,2.15c0.73,0,1.3-0.28,1.56-0.47
			c0.16-0.11,0.12-0.17,0.04-0.27c-0.03-0.04-0.06-0.08-0.09-0.12c-0.03-0.04-0.06-0.08-0.09-0.12c-0.08-0.1-0.14-0.07-0.26,0
			c-0.01,0.01-0.02,0.01-0.04,0.02c-0.24,0.14-0.6,0.31-1.05,0.31c-0.75,0-1.38-0.64-1.42-1.33h3.05c0.1,0,0.18-0.07,0.19-0.17
			c0.01-0.07,0.02-0.2,0.02-0.28C156.01,91.18,155.21,90.39,154.1,90.39z M155.28,92.14h-2.52c0.07-0.63,0.62-1.13,1.33-1.13
			C154.74,91.01,155.25,91.54,155.28,92.14z"/>
		<path class="st3" d="M157,94.39c0,0.1,0.1,0.19,0.2,0.19h0.33c0.11,0,0.2-0.09,0.2-0.2v-2.73c0,0,0.45-0.58,1.21-0.58
			c0.65,0,1.01,0.38,1.01,1.16v2.16c0,0.1,0.1,0.19,0.2,0.19h0.34c0.11,0,0.2-0.09,0.2-0.2v-2.15c0-0.21-0.02-0.41-0.05-0.58
			c0.15-0.13,0.6-0.57,1.29-0.57c0.61,0,0.95,0.39,0.95,1.16v2.16c0,0.11,0.09,0.19,0.19,0.19h0.35c0.11,0,0.2-0.09,0.2-0.2v-2.15
			c0-1.06-0.41-1.84-1.64-1.84c-0.85,0-1.52,0.62-1.58,0.67c-0.28-0.43-0.73-0.67-1.35-0.67c-0.88,0-1.38,0.54-1.38,0.54l-0.1-0.32
			c-0.02-0.08-0.07-0.12-0.17-0.12h-0.2c-0.11,0-0.2,0.09-0.2,0.19V94.39z"/>
		<path class="st3" d="M166.59,94.57l-0.86,2.1c-0.07,0.14,0.01,0.26,0.17,0.26h0.39c0.07,0,0.15-0.06,0.18-0.12l2.75-6.08
			c0.07-0.13,0-0.24-0.16-0.24h-0.4c-0.07,0-0.15,0.05-0.18,0.11L167,93.73l-1.58-3.13c-0.03-0.06-0.1-0.11-0.18-0.11h-0.47
			c-0.16,0-0.22,0.09-0.16,0.23L166.59,94.57z"/>
		<path class="st1" d="M129.03,94.39c0,0.11,0.09,0.19,0.19,0.19h0.33c0.11,0,0.2-0.09,0.2-0.2v-2.73c0,0,0.57-0.58,1.37-0.58
			c0.59,0,0.95,0.38,0.95,1.16v2.16c0,0.11,0.09,0.19,0.19,0.19h0.35c0.11,0,0.2-0.09,0.2-0.2v-2.15c0-1.06-0.41-1.84-1.64-1.84
			c-0.88,0-1.48,0.54-1.48,0.54l-0.1-0.32c-0.02-0.08-0.07-0.12-0.17-0.12h-0.2c-0.11,0-0.2,0.09-0.2,0.19V94.39z"/>
	</g>
</g>
<g>
	<path id="base_4_" class="st4" d="M254.34,34.34c-2.03-2.3-4.73-3.56-7.6-3.56h0c-0.21,0-0.42,0.01-0.63,0.02L69.36,42.34l-0.03,0
		l-0.03,0C60.65,43.19,55.71,48.44,55,57.5l-0.08,1.05c-0.17-0.02-0.34-0.03-0.5-0.03c-0.25,0-0.5,0.02-0.74,0.07
		c-0.21,0.02-0.45,0.08-0.71,0.17l0-3.7c1.84-1.19,2.54-4.24,3.64-9.62c0.14-0.7,0.29-1.41,0.44-2.12c1.35-3,3.34-5.79,5.28-8.49
		c3.34-4.66,6.79-9.48,6.43-15.15l-0.23-0.83c-3.77-7.38-8.81-12.09-15.4-14.41c-1.98-0.71-3.76-1.09-5.19-1.39
		c-0.59-0.12-1.1-0.23-1.53-0.34l-0.15-0.03C42.59,2,38.62,1.37,34.53,1.37c-1.74,0-3.35,0.11-4.95,0.34
		c-2.01,0.29-4.06,1.22-6.23,2.21c-2.33,1.06-4.74,2.15-6.85,2.3l-0.52,0.1C11.31,7.86,9.79,10,8.56,11.73
		c-0.09,0.12-0.17,0.24-0.26,0.37l-0.21,0.36c-1.53,3.33-1.91,6.74-1.14,10.16L7,22.78c0.57,1.82,1.25,3.59,1.9,5.29
		c1.3,3.39,2.52,6.6,3.02,10.19l0.26,0.76c0.5,0.88,0.88,2.22,1.3,3.64c0.85,2.94,1.91,6.59,4.75,9.49l0.01,0.29v4.03
		c0,0-10.54,5.09-13.6,7.36c-1.55,1.15-3.58,3.96,0.14,6.31c2.86,1.81,11.96,6.57,11.93,6.84c-0.32,3.24,0.79,6.16,1.84,7.39
		c1.72,2.03,4.54,3.19,7.75,3.19c3.07,0,6.09-1.07,8.09-2.85c0.5-0.45,0.93-0.93,1.28-1.42c0.36,0.5,0.78,0.98,1.28,1.42
		c1.99,1.78,5.02,2.85,8.09,2.85c3.21,0,6.03-1.16,7.75-3.19c1.13-1.33,2.35-3.71,1.72-7.43l-0.11-0.61c0.06,0,1.63-0.78,1.63-0.78
		s0,0.01,0.01,0.13c0.18,2.03,0.49,5.59,5.84,6.05l0.06,0.01l0.06,0l184.18,4.96c0.09,0,0.18,0,0.28,0c2.93,0,5.68-1.24,7.75-3.48
		c2.02-2.19,3.13-5.05,3.13-8.07V42.35C257.35,39.38,256.28,36.54,254.34,34.34z"/>
	<linearGradient id="brown_1_" gradientUnits="userSpaceOnUse" x1="57.1223" y1="58.7378" x2="255.2258" y2="58.7378">
		<stop  offset="0" style="stop-color:#3B2519"/>
		<stop  offset="0.0299" style="stop-color:#3F2719"/>
		<stop  offset="0.2736" style="stop-color:#5C331B"/>
		<stop  offset="0.4847" style="stop-color:#6E3B1D"/>
		<stop  offset="0.6382" style="stop-color:#743E1D"/>
		<stop  offset="0.7421" style="stop-color:#6F3C1C"/>
		<stop  offset="0.8624" style="stop-color:#61351A"/>
		<stop  offset="0.9905" style="stop-color:#4A2B17"/>
		<stop  offset="1" style="stop-color:#482A17"/>
	</linearGradient>
	<path id="brown_4_" class="st5" d="M69.5,44.46l176.74-11.54c4.93-0.32,8.98,4.24,8.98,9.43v32.79c0,5.18-4.04,9.56-8.98,9.43
		L62.07,79.61c-3.79-0.33-3.76-2.55-3.96-4.71c13.03-2.36,5.67-18.05-0.98-17.23C57.86,48.23,63.31,45.07,69.5,44.46L69.5,44.46z"/>
	<g id="face_4_">
		<g>
			<path class="st6" d="M57.4,61.65L57.4,61.65c2.2,0.72,4.01,1.74,5.42,3.06c0.31,0.22,0.46,0.47,0.46,0.76
				c0,0.47-0.35,0.92-1.06,1.36c-0.83,0.52-2.07,1.44-3.71,2.76c-1.52,1.21-2.75,2.09-3.68,2.65c-0.18,0.09-0.36,0.14-0.54,0.14
				c-0.27,0-0.51-0.1-0.7-0.28c-0.2-0.19-0.3-0.41-0.3-0.66c0-0.22,0.08-0.41,0.24-0.6c0.22-0.36,0.72-0.76,1.52-1.19
				c0.52-0.27,1.17-0.71,1.95-1.33c0.94-0.76,1.59-1.26,1.95-1.49c0.79-0.4,1.19-0.68,1.19-0.84c0-0.04-0.01-0.07-0.03-0.11
				c-0.43-0.76-1.15-1.33-2.14-1.71c-0.88-0.25-1.78-0.51-2.68-0.79c-1.06-0.32-1.85-0.78-2.36-1.38c-0.04-0.05-0.05-0.12-0.05-0.19
				c0-0.22,0.13-0.46,0.38-0.72c0.25-0.26,0.5-0.39,0.73-0.39c0.14-0.04,0.29-0.05,0.43-0.05c0.42,0,0.93,0.13,1.54,0.38
				C56.43,61.23,56.91,61.43,57.4,61.65 M15.15,60.76c0.41,0,0.75,0.11,1.02,0.33c0.26,0.22,0.39,0.47,0.39,0.76
				c0,0.22-0.08,0.41-0.24,0.57c-0.6,0.65-1.82,1.35-3.68,2.09c-1.72,0.69-2.87,1.48-3.47,2.38c1.01,0.61,2.34,1.28,3.98,2
				c2.62,1.17,3.97,1.78,4.06,1.82c0.34,0.16,0.51,0.42,0.51,0.79c0.04,0.45-0.14,0.83-0.53,1.15c-0.39,0.32-0.84,0.47-1.34,0.47
				c-0.2,0-0.39-0.04-0.57-0.11c-0.22-0.22-0.51-0.47-0.89-0.76c-2.38-1.3-4.93-2.54-7.64-3.71c-0.27-0.11-0.54-0.21-0.81-0.3
				c-0.34-0.16-0.54-0.4-0.6-0.7c0-0.78,0.34-1.5,1.03-2.17c0.83-0.67,2.2-1.43,4.12-2.3c1.86-0.83,3.2-1.6,4.04-2.3
				C14.53,60.76,14.73,60.76,15.15,60.76z"/>
			<path class="st6" d="M32.14,60.72c-0.45-0.65-0.87-1.11-1.25-1.38c-0.38-0.27-0.82-0.4-1.33-0.4c-0.18,0-0.34,0.03-0.47,0.08
				l-3,1.04c-0.17,0.06-0.37,0.08-0.59,0.08c-0.4,0-0.72-0.09-0.96-0.28c-0.25-0.18-0.55-0.55-0.9-1.1l-0.83,0.55
				c0.52,0.75,0.97,1.25,1.33,1.49c0.37,0.25,0.83,0.37,1.4,0.37c0.25,0,0.5-0.04,0.74-0.11l2.75-1c0.18-0.07,0.38-0.11,0.59-0.11
				c0.35,0,0.64,0.07,0.85,0.22c0.21,0.14,0.51,0.47,0.89,0.99L32.14,60.72"/>
			<path class="st7" d="M52.41,77.29c1.51,9.02-9.52,9.89-14.05,5.84c-3.13-2.8-2.25-6.69,2.24-6.45
				C44.55,76.89,46.88,81.99,52.41,77.29"/>
			<path class="st7" d="M18.91,77.29c-1.51,9.02,9.52,9.89,14.05,5.84c3.13-2.8,2.25-6.69-2.24-6.45
				C26.77,76.89,24.44,81.99,18.91,77.29"/>
			<path class="st6" d="M29.74,64.2c-0.5-0.35-1.12-0.53-1.86-0.53c-0.89,0-1.61,0.27-2.17,0.8c-0.65,0.59-0.9,1.43-0.75,2.53
				c0.09,0.89,0.41,1.67,0.95,2.35c0.55,0.68,1.21,1.02,1.97,1.02c0.47,0,0.96-0.13,1.46-0.4c0.89-0.53,1.33-1.55,1.33-3.06
				C30.67,65.55,30.36,64.65,29.74,64.2z M27.84,67.79c-0.52,0-0.95-0.42-0.95-0.95c0-0.52,0.42-0.95,0.95-0.95
				c0.52,0,0.95,0.42,0.95,0.95C28.79,67.37,28.36,67.79,27.84,67.79z"/>
			<path class="st6" d="M36.34,75.91c0.28,0,0.55-0.05,0.8-0.15c0.25-0.1,0.48-0.22,0.69-0.38c0.21-0.16,0.4-0.34,0.57-0.53
				c0.17-0.2,0.32-0.39,0.44-0.6c0.13-0.2,0.23-0.39,0.31-0.58c0.08-0.18,0.14-0.33,0.17-0.46c-0.01-0.02-0.02-0.05-0.04-0.09
				c-0.02-0.03-0.04-0.06-0.05-0.09C39.21,73.01,39.19,73,39.18,73c-0.24,0.44-0.5,0.8-0.8,1.08c-0.3,0.28-0.63,0.48-0.98,0.61
				c-0.36,0.13-0.75,0.19-1.16,0.19c-0.36,0-0.68-0.05-0.96-0.14c-0.29-0.09-0.54-0.23-0.77-0.4c-0.23-0.18-0.43-0.39-0.62-0.63
				c-0.18-0.24-0.35-0.52-0.5-0.82c-0.01,0-0.02,0.01-0.04,0.03c-0.02,0.02-0.04,0.05-0.05,0.08c-0.02,0.03-0.02,0.05-0.03,0.07
				c0.14,0.39,0.31,0.75,0.52,1.1c0.2,0.34,0.43,0.64,0.69,0.9c0.26,0.26,0.54,0.47,0.86,0.62C35.64,75.82,35.98,75.9,36.34,75.91"
				/>
			<path class="st6" d="M45.13,64.14c-0.5-0.35-1.12-0.53-1.86-0.53c-0.89,0-1.61,0.27-2.17,0.8c-0.65,0.59-0.9,1.44-0.75,2.53
				c0.09,0.89,0.41,1.67,0.95,2.35c0.55,0.68,1.21,1.02,1.97,1.02c0.47,0,0.96-0.13,1.46-0.4c0.89-0.53,1.33-1.55,1.33-3.06
				C46.07,65.48,45.76,64.58,45.13,64.14z M42.95,67.9c-0.52,0-0.95-0.43-0.95-0.95c0-0.52,0.42-0.95,0.95-0.95
				c0.52,0,0.95,0.42,0.95,0.95C43.9,67.48,43.47,67.9,42.95,67.9z"/>
		</g>
		<g id="Cap_4_">
			<g>
				<linearGradient id="SVGID_1_" gradientUnits="userSpaceOnUse" x1="8.8355" y1="28.4626" x2="66.6589" y2="28.4626">
					<stop  offset="0.0397" style="stop-color:#F9F9EC"/>
					<stop  offset="0.4183" style="stop-color:#F9F9EC"/>
					<stop  offset="0.4932" style="stop-color:#F3F1E2"/>
					<stop  offset="0.6217" style="stop-color:#E4DDC6"/>
					<stop  offset="0.7873" style="stop-color:#CCBC9A"/>
					<stop  offset="0.7969" style="stop-color:#CABA97"/>
					<stop  offset="1" style="stop-color:#BAA685"/>
				</linearGradient>
				<path class="st8" d="M51.65,53.38c1.54-0.67,2.33-5.87,3.37-10.71c3.75-8.57,12.12-14.88,11.62-22.85
					c-6.87-13.45-16.49-13.93-20.61-15C40.69,3.83,35.36,3.1,30.03,3.87c-3.79,0.56-8.7,4.21-13.24,4.52
					c-4.33,1.43-5.41,3.33-6.62,5c-1.35,2.94-1.66,5.87-1,8.81c1.66,5.28,4.21,10.08,5,15.83c1.75,3.09,1.87,8.93,5.87,12.85
					C32.28,45.05,42.28,49.57,51.65,53.38z"/>
				<path class="st9" d="M51.5,53.44l-1.15-0.47c-9.19-3.75-18.7-7.64-30.42-2.05l-0.07,0.03l-0.05-0.05
					c-2.61-2.56-3.57-5.87-4.41-8.8c-0.45-1.54-0.87-2.99-1.48-4.08l-0.01-0.04c-0.53-3.82-1.85-7.29-3.13-10.64
					c-0.64-1.68-1.31-3.42-1.86-5.18c-0.67-2.98-0.33-5.97,1-8.88c0.1-0.14,0.19-0.27,0.28-0.4c1.11-1.56,2.36-3.33,6.4-4.66
					c2.5-0.18,5.08-1.35,7.57-2.48c2.04-0.93,3.97-1.8,5.69-2.05c5.07-0.73,10.07-0.15,16.02,0.95c0.48,0.12,1.01,0.24,1.62,0.37
					c4.53,0.96,12.96,2.73,19.06,14.69l0.01,0.04c0.31,4.96-2.78,9.28-6.06,13.85c-2.03,2.84-4.14,5.78-5.57,9.05
					c-0.16,0.76-0.32,1.55-0.48,2.33c-0.86,4.21-1.6,7.85-2.95,8.44L51.5,53.44z M31.86,47.91c6.66,0,12.68,2.46,18.58,4.87
					l1.06,0.43c1.22-0.6,1.98-4.33,2.79-8.27c0.16-0.78,0.32-1.57,0.49-2.35c1.45-3.31,3.56-6.26,5.6-9.11
					c3.25-4.54,6.32-8.82,6.02-13.7C60.33,7.94,52.29,6.25,47.48,5.23c-0.62-0.13-1.15-0.24-1.63-0.37
					C39.93,3.77,34.94,3.19,29.9,3.92c-1.69,0.25-3.6,1.12-5.63,2.03c-2.51,1.14-5.1,2.31-7.62,2.49c-3.95,1.31-5.18,3.04-6.27,4.58
					c-0.09,0.13-0.18,0.25-0.27,0.38c-1.31,2.85-1.64,5.8-0.98,8.72c0.55,1.75,1.21,3.48,1.86,5.16c1.28,3.35,2.61,6.82,3.14,10.66
					c0.62,1.1,1.04,2.56,1.49,4.1c0.83,2.88,1.78,6.14,4.31,8.66C24.16,48.69,28.11,47.91,31.86,47.91z"/>
			</g>
			<g>
				<linearGradient id="SVGID_2_" gradientUnits="userSpaceOnUse" x1="20.269" y1="49.2016" x2="50.9735" y2="49.2016">
					<stop  offset="0" style="stop-color:#F9F9EC"/>
					<stop  offset="0.0526" style="stop-color:#F9F9EC"/>
					<stop  offset="0.3844" style="stop-color:#F9F9EC"/>
					<stop  offset="0.5145" style="stop-color:#F5F4E5"/>
					<stop  offset="0.7094" style="stop-color:#EAE5D0"/>
					<stop  offset="0.9441" style="stop-color:#D9CCAF"/>
					<stop  offset="0.9987" style="stop-color:#D4C6A6"/>
				</linearGradient>
				<path class="st10" d="M20.39,54.28c4.41-2.34,15.45-8.13,30.23,2.02c0.42-2.38,0.46-4.76,0.13-7.14
					c-0.42-5.63-22.48-12.52-30.48-0.12L20.39,54.28"/>
				<path class="st9" d="M50.66,56.38l-0.06-0.04c-6.33-4.35-12.71-6.26-18.98-5.69c-5.18,0.47-9.1,2.55-11.21,3.67l-0.06,0.03
					l0-0.07l-0.12-5.25l0.01-0.01c2.16-3.34,5.43-5.52,9.74-6.46c3.53-0.78,7.65-0.65,11.6,0.36c5.26,1.34,9.05,3.91,9.22,6.24
					c0.33,2.37,0.29,4.78-0.13,7.15L50.66,56.38z M33.79,50.46c5.56,0,11.2,1.93,16.8,5.77c0.4-2.34,0.44-4.72,0.11-7.06
					c-0.17-2.26-4.02-4.86-9.16-6.17c-3.93-1-8.04-1.13-11.56-0.36c-4.28,0.94-7.54,3.1-9.68,6.41l0.12,5.15
					c2.13-1.13,6.03-3.18,11.18-3.65C32.34,50.49,33.07,50.46,33.79,50.46z"/>
			</g>
			<g>
				<g id="_x31__4_">
					<linearGradient id="SVGID_3_" gradientUnits="userSpaceOnUse" x1="10.162" y1="21.8836" x2="15.7322" y2="21.8836">
						<stop  offset="0" style="stop-color:#E8DBCA"/>
						<stop  offset="1" style="stop-color:#F2ECDE"/>
					</linearGradient>
					<path class="st11" d="M14.18,12.5c-0.68,3.43,2.36,14.26,1.34,19.94c-0.52-2.98-2.42-8.89-2.34-12.22
						c-0.92-2-1.84-4.42-2.85-5.35C9.42,14.04,12.42,9.09,14.18,12.5"/>
					<path class="st12" d="M21.11,47.36c-0.01-0.01-0.01-0.01-0.01-0.02c-4-4.68-5.65-12.74-7.04-19.53
						c-1.1-5.39-2.04-9.99-3.86-11.44l-0.01-0.01c-0.23-0.3-0.36-0.65-0.41-1.02c-0.09-0.64,0.07-1.34,0.4-1.99
						c0.32-0.65,0.81-1.23,1.39-1.63c0.4-0.28,0.85-0.46,1.31-0.52l0.01,0.09c-0.45,0.05-0.88,0.24-1.27,0.5
						c-0.43,0.59-0.75,0.97-1.07,1.6c-0.89,1.78,0.96,1.69,1.69,2.66c1.84,1.48,1.99,6.33,3.1,11.74
						c1.39,6.78,1.84,14.83,5.82,19.49h0c0.01,0.01,0.01,0.01,0.01,0.02L21.11,47.36"/>
				</g>
				<g id="_x32__4_">
					<linearGradient id="SVGID_4_" gradientUnits="userSpaceOnUse" x1="18.402" y1="15.8332" x2="21.4598" y2="20.2955">
						<stop  offset="0" style="stop-color:#ECE1D1"/>
						<stop  offset="0.4318" style="stop-color:#EEE6D9"/>
						<stop  offset="1" style="stop-color:#EFE9DE"/>
					</linearGradient>
					<path class="st13" d="M20.96,11.1c-0.68,3.43,1.06,11.3,0.05,16.99c-0.52-2.98-2.42-8.89-2.34-12.22
						c-0.92-2-2.02-4.28-2.67-5.46C15.41,9.35,18.45,7.92,20.96,11.1"/>
					<path class="st12" d="M19.63,9.9c-0.87-0.59-1.22-0.56-1.97-0.46c-0.31,0.04-0.57,0.14-0.77,0.28
						c-0.2,0.14-0.33,0.34-0.37,0.58c-0.04,0.36-0.28,0.42,0.05,1.08l0,0c2.22,3.01,3.91,8,4.38,13.31
						c0.59,6.73-0.19,14.19,4.27,19.47l-0.07,0.06c-4.48-5.31-5.14-12.78-5.73-19.52c-0.47-5.3-0.9-10.15-3.1-13.14l0,0
						c-0.46-0.62-0.6-1.13-0.53-1.53c0.05-0.27,0.19-0.48,0.41-0.64c0.21-0.16,0.49-0.26,0.82-0.3c0.77-0.1,1.78,0.13,2.67,0.74
						L19.63,9.9"/>
				</g>
				<g id="_x33__4_">
					<linearGradient id="SVGID_5_" gradientUnits="userSpaceOnUse" x1="26.8084" y1="19.2871" x2="32.4725" y2="19.2871">
						<stop  offset="0" style="stop-color:#ECE1D1"/>
						<stop  offset="1" style="stop-color:#EDE4D5"/>
					</linearGradient>
					<path class="st14" d="M31.87,5.08c2.06,3.44-1.73,18.92-2.4,28.65C29.41,34.55,22.15,1.62,31.87,5.08"/>
					<path class="st15" d="M31,42.32c-2.35-6.12-4.87-16.74-5.26-25.12c-0.15-3.3,0.02-6.26,0.67-8.46
						c0.65-2.21,1.78-3.65,3.53-3.91c0.57-0.09,1.21-0.04,1.92,0.14l-0.03,0.09c-0.7-0.18-1.35-0.03-1.91,0.06
						c-1.46,0.33-1.29,1.25-2.25,3.32c-0.64,2.19-1,4.9-0.71,8.2c1.25,8.17,2.78,19.31,4.11,25.65L31,42.32"/>
				</g>
				<path id="_x34__4_" class="st16" d="M37.84,41.79c-0.09-0.66-0.18-1.34-0.28-2.03c-1.53-11.02-3.4-24.5,3.16-34.19l0.08,0.05
					c-2.69,7.17-3.05,20.82-3.37,25.23c-0.14,1.9,0.08,5.98,0.23,8.89c0.09,0.68,0.19,1.36,0.28,2.03L37.84,41.79"/>
				<linearGradient id="_x35__1_" gradientUnits="userSpaceOnUse" x1="48.7243" y1="18.9074" x2="48.5776" y2="26.3957">
					<stop  offset="0" style="stop-color:#BAA68A"/>
					<stop  offset="1" style="stop-color:#C7BAA0"/>
				</linearGradient>
				<path id="_x35__4_" class="st17" d="M44.96,43.21c0.23-5.71,0.84-12.39,1.39-18.18c1.38-7.3,5.09-10.75,6.06-18.13l0.02-0.09
					c-3.54,5.77-5.51,12.01-6.54,18.24c-1.02,6.23-1.1,12.45-0.83,18.16L44.96,43.21"/>
				<g id="_x36__4_">
					<linearGradient id="SVGID_6_" gradientUnits="userSpaceOnUse" x1="52.0622" y1="29.1551" x2="62.1188" y2="29.1551">
						<stop  offset="0" style="stop-color:#BDAE99"/>
						<stop  offset="0.2551" style="stop-color:#BFB19C"/>
						<stop  offset="1" style="stop-color:#C2B5A1"/>
					</linearGradient>
					<path class="st18" d="M62.12,15.57c-2.95,9.16-6.49,18.11-10.06,27.17C52.16,30.75,58.59,16.31,62.12,15.57"/>
					<path class="st12" d="M50.37,46.78c1.56-1.63,1.67-4.13,1.81-7.03c0.12-2.68,0.26-5.7,1.57-8.69c0.03-0.11,0.09-0.3,0.16-0.56
						c0.87-3.03,4.35-15.21,8.41-14.99l-0.01,0.09c-3.19-0.12-7.24,11.93-8.2,14.94c-0.07,0.25-0.09,0.41-0.13,0.53l0,0.01
						c-1.14,2.97-1.21,6-1.59,8.67c-0.13,2.91-0.38,5.43-1.96,7.08L50.37,46.78"/>
				</g>
			</g>
		</g>
	</g>
	<g id="name_4_">
		<path class="st4" d="M90.21,70.23c0,0.19-0.12,0.44-0.38,0.76c-2.22,2.63-5.17,3.95-8.86,3.95c-3.77,0-6.82-1.28-9.16-3.84
			c-2.28-2.48-3.43-5.61-3.43-9.38c0-3.66,1.12-6.76,3.35-9.3c2.33-2.66,5.3-4,8.9-4c3.91,0,6.98,1.19,9.2,3.59
			c0.24,0.26,0.36,0.5,0.36,0.7c0,0.23-0.41,1.08-1.26,2.54c-0.84,1.47-1.37,2.29-1.58,2.47c-0.1,0.09-0.22,0.14-0.36,0.14
			c-0.06,0-0.36-0.24-0.91-0.72c-0.65-0.58-1.29-1.03-1.92-1.35c-0.95-0.48-1.95-0.72-2.97-0.72c-1.77,0-3.19,0.66-4.25,1.98
			c-0.98,1.22-1.47,2.74-1.47,4.55c0,1.82,0.49,3.35,1.47,4.6c1.06,1.34,2.48,2.02,4.25,2.02c1.05,0,2.05-0.23,2.99-0.69
			c0.61-0.3,1.24-0.72,1.89-1.26c0.53-0.46,0.82-0.68,0.88-0.68c0.12,0,0.24,0.07,0.36,0.2c0.19,0.22,0.72,0.97,1.58,2.25
			C89.77,69.37,90.21,70.1,90.21,70.23L90.21,70.23z"/>
		<path class="st4" d="M116.16,61.69c0,3.75-1.2,6.89-3.6,9.43c-2.45,2.57-5.56,3.86-9.31,3.86c-3.73,0-6.83-1.3-9.29-3.89
			c-2.42-2.54-3.62-5.67-3.62-9.4c0-3.74,1.21-6.88,3.62-9.43c2.47-2.61,5.56-3.91,9.29-3.91c3.71,0,6.8,1.3,9.27,3.91
			C114.95,54.83,116.16,57.98,116.16,61.69L116.16,61.69z M109.3,61.65c0-1.8-0.55-3.34-1.65-4.6c-1.15-1.32-2.62-1.98-4.4-1.98
			c-1.7,0-3.15,0.68-4.33,2.06c-1.15,1.32-1.73,2.84-1.73,4.56c0,1.84,0.54,3.37,1.61,4.6c1.14,1.29,2.62,1.93,4.44,1.93
			c1.7,0,3.15-0.68,4.35-2.04C108.73,64.88,109.3,63.37,109.3,61.65L109.3,61.65z"/>
		<path class="st4" d="M141.34,61.53c0,3.53-1.14,6.6-3.43,9.19c-2.02,2.32-4.85,3.54-8.49,3.66c-0.7,0.02-2.63,0.04-5.78,0.04
			c-0.59,0-1.48-0.02-2.67-0.06c-1.19-0.04-2.08-0.06-2.67-0.06c-0.35,0-0.53-0.14-0.53-0.41c0-1.32,0.06-3.31,0.15-5.96
			c0.11-2.65,0.15-4.63,0.15-5.96c0-1.38-0.05-3.45-0.15-6.21c-0.1-2.76-0.15-4.82-0.15-6.2c0-0.25,0.18-0.4,0.53-0.45
			c0.86-0.09,2.26-0.14,4.22-0.14c3.72,0,6.13,0.06,7.23,0.16c2.86,0.29,5.1,1.01,6.72,2.17c1.52,1.08,2.72,2.6,3.6,4.54
			C140.92,57.69,141.34,59.58,141.34,61.53L141.34,61.53z M134.41,61.53c0-2.03-0.61-3.69-1.83-4.98c-1.23-1.34-2.86-2-4.89-2
			c-1.86,0-2.79,0.25-2.79,0.74c0,0.71-0.01,1.78-0.04,3.2c-0.02,1.43-0.04,2.49-0.04,3.2c0,0.7,0.01,1.75,0.04,3.14
			c0.02,1.4,0.04,2.46,0.04,3.17c0,0.52,0.96,0.78,2.89,0.78c2.09,0,3.73-0.7,4.93-2.07C133.84,65.39,134.41,63.66,134.41,61.53
			L134.41,61.53z"/>
		<path class="st4" d="M161.54,68.7c0,0.52-0.1,1.46-0.31,2.85c-0.22,1.5-0.41,2.39-0.58,2.68c-0.14,0.23-0.35,0.34-0.6,0.34
			c-0.11,0-0.29-0.02-0.54-0.06c-0.88-0.12-3.45-0.18-7.72-0.18c-0.93,0-2.31-0.01-4.15-0.02c-1.83-0.01-3.21-0.02-4.12-0.02
			c-0.4,0-0.6-0.17-0.6-0.52c0-1.35,0.07-3.37,0.22-6.07c0.15-2.7,0.23-4.72,0.23-6.07c0-1.37-0.07-3.92-0.22-7.66
			c-0.04-0.96-0.1-2.39-0.2-4.31l-0.02-0.25c-0.02-0.28,0.12-0.41,0.45-0.41c0.9,0,2.24,0.02,4.03,0.07
			c1.79,0.05,3.13,0.07,4.03,0.07c0.88,0,2.21-0.02,3.98-0.07c1.77-0.04,3.1-0.07,3.99-0.07c0.62,0,0.99,0.23,1.09,0.7
			c0.06,0.28,0.15,1.11,0.28,2.52c0.12,1.4,0.19,2.25,0.19,2.55c0,0.25-0.12,0.38-0.36,0.38c-0.07,0-0.2-0.01-0.38-0.02
			c-3.22-0.26-6.1-0.4-8.66-0.4c-0.64,0-1.03,0.15-1.17,0.46c-0.06,0.14-0.09,0.6-0.09,1.38c0,0.82,0.12,1.36,0.36,1.62
			c0.2,0.23,0.59,0.34,1.17,0.34c0.12,0,0.36-0.01,0.7-0.02c0.35-0.02,0.64-0.02,0.87-0.02c1.52,0,3.06-0.04,4.62-0.13
			c0.14-0.01,0.46-0.04,1-0.09c0.41-0.04,0.74-0.07,0.98-0.07c0.29,0,0.44,0.14,0.44,0.41c0-0.25-0.11,0.67-0.33,2.76
			c-0.1,0.97-0.14,1.93-0.14,2.89c0,0.24-0.18,0.36-0.53,0.36c0,0-0.54-0.06-1.63-0.18c-0.69-0.07-2.26-0.1-4.71-0.1h-1.92
			c-0.49,0-0.79,0.12-0.87,0.36c-0.01,0.06-0.02,0.44-0.02,1.12c0,0.92,0.06,1.5,0.18,1.77c0.21,0.46,0.98,0.73,2.32,0.81
			c-0.02,0,0.86,0,2.65,0c0.64,0,1.59-0.06,2.86-0.17c1.26-0.11,2.21-0.17,2.83-0.17C161.4,68.05,161.54,68.27,161.54,68.7
			L161.54,68.7z"/>
		<path class="st19" d="M230,69.15c0,0.5-0.1,1.41-0.3,2.74c-0.21,1.45-0.4,2.3-0.56,2.58c-0.14,0.22-0.34,0.33-0.58,0.33
			c-0.1,0-0.28-0.02-0.53-0.05c-0.85-0.11-3.34-0.17-7.48-0.17c-0.9,0-2.24-0.01-4.02-0.02c-1.77-0.01-3.11-0.02-4-0.02
			c-0.39,0-0.58-0.17-0.58-0.5c0-1.3,0.07-3.24,0.22-5.84c0.15-2.59,0.22-4.54,0.22-5.84c0-1.32-0.07-3.77-0.21-7.38
			c-0.04-0.92-0.1-2.3-0.19-4.15l-0.02-0.24c-0.02-0.27,0.12-0.4,0.44-0.4c0.87,0,2.17,0.02,3.91,0.07
			c1.74,0.05,3.04,0.07,3.91,0.07c0.85,0,2.14-0.02,3.86-0.07c1.72-0.04,3.01-0.07,3.86-0.07c0.6,0,0.96,0.23,1.05,0.68
			c0.05,0.27,0.14,1.07,0.27,2.42c0.12,1.34,0.19,2.16,0.19,2.45c0,0.24-0.12,0.37-0.35,0.37c-0.07,0-0.19-0.01-0.37-0.02
			c-3.12-0.25-5.91-0.38-8.4-0.38c-0.62,0-1,0.15-1.14,0.44c-0.06,0.14-0.09,0.58-0.09,1.33c0,0.79,0.12,1.31,0.35,1.56
			c0.2,0.22,0.58,0.33,1.14,0.33c0.12,0,0.35-0.01,0.68-0.02c0.34-0.02,0.62-0.02,0.84-0.02c1.47,0,2.97-0.04,4.48-0.12
			c0.13-0.01,0.45-0.04,0.96-0.09c0.4-0.04,0.71-0.07,0.95-0.07c0.28,0,0.43,0.13,0.43,0.4c0-0.24-0.11,0.65-0.32,2.65
			c-0.1,0.93-0.14,1.85-0.14,2.78c0,0.23-0.17,0.35-0.51,0.35c0,0-0.53-0.06-1.58-0.18c-0.66-0.07-2.19-0.1-4.57-0.1h-1.86
			c-0.48,0-0.76,0.11-0.84,0.34c-0.01,0.06-0.02,0.42-0.02,1.08c0,0.88,0.06,1.45,0.17,1.7c0.2,0.44,0.95,0.7,2.25,0.78
			c-0.02,0,0.83,0,2.56,0c0.62,0,1.54-0.05,2.77-0.17c1.22-0.11,2.14-0.17,2.74-0.17C229.86,68.52,230,68.74,230,69.15L230,69.15z"
			/>
		<path class="st19" d="M249.34,55.86c0,0.12-0.12,0.19-0.35,0.19c-0.87,0-2.2-0.08-3.99-0.22c-1.79-0.15-3.12-0.23-4.01-0.23
			c-1.12,0-1.77,0.04-1.97,0.12c-0.43,0.2-0.65,0.75-0.65,1.67c0,1.1,0.28,1.72,0.84,1.87c0.24,0.06,0.59,0.09,1.07,0.09
			c0.81,0,2.02-0.05,3.62-0.13c1.61-0.09,2.82-0.13,3.63-0.13c0.39,0,0.58,1.02,0.58,3.05c0,1.77-0.07,2.8-0.19,3.09
			c-0.08,0.21-0.24,0.31-0.47,0.31c0.15,0-0.22-0.04-1.11-0.12c-1.25-0.12-3.15-0.17-5.69-0.17c-0.82,0-1.28,0.01-1.39,0.02
			c-0.59,0.09-0.89,0.34-0.89,0.75c0,1.64,0.07,3.53,0.21,5.67c0.12,1.93,0.17,2.79,0.17,2.58c0,0.3-0.37,0.47-1.1,0.52
			c0.2-0.01-0.32-0.02-1.56-0.02c-2.19,0-3.6-0.08-4.23-0.22c-0.34-0.08-0.51-0.26-0.51-0.54c0-1.29,0.04-3.21,0.13-5.79
			c0.09-2.57,0.13-4.5,0.13-5.79c0-1.53-0.07-3.45-0.21-5.76c-0.21-3.57-0.32-5.49-0.34-5.76l-0.02-0.21
			c-0.01-0.29,0.17-0.44,0.53-0.44c0.87,0,2.18,0.02,3.92,0.05c1.75,0.04,3.06,0.05,3.94,0.05c0.93,0,2.34-0.07,4.22-0.21
			c1.88-0.14,3.28-0.21,4.22-0.21c0.58,0,0.91,0.24,0.98,0.71c0,0.5,0.02,1.24,0.07,2.24c0.02,0.26,0.1,0.75,0.23,1.48
			C249.28,55.02,249.34,55.51,249.34,55.86L249.34,55.86z"/>
		<g>
			<path class="st19" d="M163.23,56.51c-1.02,3.44-0.74,6.99,0.83,10.53c1.62,3.66,4.06,6.22,7.27,7.62
				c3.28,1.44,6.74,1.34,10.28-0.29c3.46-1.6,5.7-4.17,6.66-7.65c0.06-0.23,0.07-0.37,0.07-0.45c-0.17-0.14-0.65-0.5-2.06-1.41
				c-1.44-0.92-2.07-1.29-2.34-1.44c-0.07,0.14-0.17,0.35-0.31,0.66c-0.42,0.91-0.89,1.68-1.39,2.29c-0.78,0.97-1.76,1.73-2.89,2.25
				c-1.94,0.9-3.86,0.86-5.7-0.12c-1.65-0.88-2.93-2.33-3.81-4.31c-0.87-1.96-1.08-3.88-0.62-5.71c0.51-2.02,1.75-3.5,3.69-4.39
				c1.11-0.51,2.31-0.75,3.57-0.69c0.85,0.05,1.74,0.23,2.68,0.53c0.38,0.12,0.62,0.19,0.77,0.23c0.06-0.25,0.19-0.96,0.37-2.9
				c0.2-2.11,0.17-2.7,0.14-2.85c-0.03-0.03-0.11-0.11-0.33-0.2c-1.35-0.58-2.76-0.87-4.23-0.87c-1.9,0-3.89,0.48-5.97,1.44
				C166.53,50.34,164.28,52.94,163.23,56.51z"/>
			<polygon class="st19" points="188.32,66.2 188.32,66.2 188.32,66.2 			"/>
		</g>
		<g>
			<path class="st19" d="M209.72,68.35c-0.12-2.52-0.18-4.41-0.18-5.67c0-1.34,0.05-3.35,0.16-6.04c0.11-2.69,0.17-4.69,0.17-6.02
				c0-0.28-0.17-0.41-0.51-0.41c-0.35,0-0.87,0.02-1.57,0.05c-0.7,0.04-1.21,0.05-1.55,0.05c-0.35,0-0.88-0.02-1.57-0.05
				c-0.7-0.03-1.22-0.05-1.56-0.05c-0.29,0-0.44,0.18-0.44,0.53c0,0.85,0.04,2.11,0.13,3.8c0.08,1.68,0.12,2.94,0.12,3.77
				c0,0.4-0.14,0.64-0.42,0.71c-0.4,0.09-1.85,0.14-4.36,0.14c-2.69,0-4.19-0.04-4.49-0.14c-0.22-0.07-0.33-0.31-0.33-0.71
				c0-0.87,0.06-2.17,0.19-3.9c0.13-1.73,0.19-3.03,0.19-3.9c0-0.21-0.1-0.31-0.3-0.31c-0.37,0-0.93,0.02-1.69,0.05
				c-0.76,0.04-1.32,0.05-1.7,0.05c-0.37,0-0.91-0.02-1.64-0.05c-0.73-0.03-1.28-0.05-1.64-0.05c-0.25,0-0.37,0.12-0.37,0.38
				c0,1.34,0.06,3.36,0.18,6.05c0.11,2.69,0.17,4.71,0.17,6.05c0,0.28,0,0.59-0.01,0.92c0.09,0.06,0.17,0.11,0.27,0.17
				c2.37,1.54,2.44,1.7,2.54,1.92c0.15,0.34,0.15,0.77,0,1.36c-0.6,2.19-1.66,4.05-3.14,5.58c-0.01,0.52-0.02,0.99-0.02,1.38
				c0,0.3,0.17,0.48,0.51,0.54c0.43,0.07,1.44,0.11,3.01,0.11c1.83,0,2.93-0.04,3.3-0.11c0.32-0.06,0.47-0.26,0.47-0.61
				c0-0.9-0.03-2.25-0.08-4.05c-0.06-1.79-0.09-3.15-0.09-4.05c0-0.46,0.13-0.72,0.38-0.78c0.41-0.09,1.84-0.14,4.28-0.14
				c2.44,0,3.85,0.05,4.25,0.14c0.26,0.07,0.39,0.33,0.39,0.78c0,0.92-0.05,2.29-0.13,4.12c-0.09,1.84-0.13,3.21-0.13,4.12
				c0,0.24,0.16,0.4,0.48,0.47c0.32,0.07,1.4,0.11,3.24,0.11c1.3,0,2.31-0.04,3.02-0.11c0.28-0.02,0.44-0.05,0.49-0.09
				c0.1-0.05,0.16-0.21,0.16-0.45C209.91,72.76,209.85,70.87,209.72,68.35z"/>
			<polygon class="st19" points="188.32,66.2 188.32,66.2 188.32,66.2 			"/>
		</g>
	</g>
</g>
</svg>
